<?xml version="1.0" encoding="utf-8"?>
<!-- Generator: Adobe Illustrator 25.2.1, SVG Export Plug-In . SVG Version: 6.00 Build 0)  -->
<svg version="1.1" id="Layer_1" xmlns="http://www.w3.org/2000/svg" xmlns:xlink="http://www.w3.org/1999/xlink" x="0px" y="0px"
	 viewBox="0 0 1800 1800" style="enable-background:new 0 0 1800 1800;" xml:space="preserve">
<style type="text/css">
	.st0{fill:#F0F0F0;}
	.st1{fill:#D9D9D9;}
	.st2{fill:#B3B3B3;}
	.st3{fill:#AC1E23;}
	.st4{fill:#681EAC;}
	.st5{fill:#231F20;}
	.st6{fill:#861EE3;}
	.st7{fill:#FB506D;}
	.st8{fill:#FFC700;}
	.st9{fill:#959A95;}
	.st10{fill:#FFEA5A;}
	.st11{fill:#155F84;}
	.st12{fill:#664624;}
	.st13{fill:#815932;}
	.st14{fill:#1E7DAC;}
	.st15{fill:#18658C;}
	.st16{fill:#FFFFFF;}
	.st17{fill:#0F5070;}
	.st18{fill:#132E42;}
	.st19{fill:#0A4F6F;}
	.st20{fill:#9D764B;}
	.st21{fill:#CF9E5F;}
	.st22{fill:#C19A9A;}
	.st23{fill:#CEA7A7;}
	.st24{fill:#051132;}
	.st25{fill:#032142;}
	.st26{fill:#BF9191;}
	.st27{fill:#CEB0BF;}
	.st28{fill:#001932;}
	.st29{fill:#BDBDBD;}
	.st30{fill:#225378;}
	.st31{fill:#E7F6FD;}
	.st32{fill:#A5DFF9;}
	.st33{fill:#FF5956;}
	.st34{fill:#8C181D;}
	.st35{fill:#9D744B;}
	.st36{display:none;}
	.st37{display:inline;fill:#1E7DAC;}
	.st38{display:inline;fill:#18658C;}
	.st39{fill:#D6B792;}
	.st40{fill:#527D5C;}
	.st41{display:inline;fill:#FFFFFF;}
	.st42{display:inline;fill:#BDBDBD;}
	.st43{display:inline;fill:#D9D9D9;}
	.st44{fill:#5BB268;}
	.st45{fill:#94AC43;}
	.st46{fill:#EB7690;}
	.st47{fill:#A766B1;}
	.st48{fill:#FFE616;}
</style>
<g>
	<ellipse class="st0" cx="1380" cy="1730.3" rx="340.6" ry="25.5"/>
	<g>
		<ellipse class="st0" cx="1430.3" cy="638.2" rx="331" ry="27.9"/>
		<g>
			<g>
				<rect x="1140.4" y="255.1" class="st1" width="172.6" height="129.6"/>
				<rect x="1140.4" y="255.1" class="st2" width="172.6" height="32.9"/>
				<rect x="1222.1" y="255.1" class="st3" width="10.5" height="129.6"/>
				<rect x="1140.1" y="309.2" class="st3" width="173" height="10.3"/>
				<polygon class="st3" points="1227.7,255.6 1177.4,220.2 1163.3,240.1 				"/>
				<polygon class="st3" points="1278.8,229 1227.7,255.6 1290.7,246.8 				"/>
				<polygon class="st3" points="1227.7,255.6 1253.7,227.9 1235.3,227.9 				"/>
			</g>
			<g>
				<g>
					<polygon class="st4" points="1248.1,430.9 1154.7,393.5 1159.4,382.1 1252.9,419.6 					"/>
					<rect x="1154.2" y="382" class="st4" width="126.9" height="11.4"/>
				</g>
				<rect x="1400.4" y="517.5" class="st5" width="135.4" height="28.2"/>
				<g>
					<path class="st6" d="M1210.5,468.8h-37.3c-7.2,0-13.2-5.8-13.2-12.9V453c0-7.1,5.9-12.9,13.2-12.9h37.3
						c7.2,0,13.2,5.8,13.2,12.9v2.9C1223.7,463,1217.8,468.8,1210.5,468.8z"/>
					<path class="st4" d="M1210.2,437.9h-23.3l-12.1,33.1h35.4c9.3,0,16.9-7.5,16.9-16.6C1227.2,445.3,1219.5,437.9,1210.2,437.9z"
						/>
				</g>
				<g>
					<path class="st7" d="M1203.7,490h-32.8c-4.9,0-8.9-3.9-8.9-8.7v-2c0-4.8,4-8.7,8.9-8.7h32.8c4.9,0,8.9,3.9,8.9,8.7v2
						C1212.6,486.1,1208.6,490,1203.7,490z"/>
					<path class="st4" d="M1201.9,469.1h-18.5l-9.6,22.4h28.1c7.4,0,13.4-5,13.4-11.2C1215.3,474.1,1209.3,469.1,1201.9,469.1z"/>
				</g>
				<path class="st8" d="M1592.2,333.8l-0.9-2.3c-4.9-12.4-19.2-18.6-31.8-13.9l-2.4,0.9l18,47.5l2.9-1.1
					C1590.7,360.2,1597.1,346.2,1592.2,333.8z"/>
				<path class="st4" d="M1268.5,420.1c0,0-64.7,9.7-76.6,35.5c-11.9,25.8,5.5,51.6,5.5,51.6s197.6,51.1,214,45.8
					c16.4-5.4-4.5-34.1,3.5-49.2c8-15.1,20.4-24.8,24.9-41.9c4.5-17-4-48.3-4-48.3l-166.7,4.5L1268.5,420.1z"/>
				<g>
					<ellipse class="st5" cx="1279.5" cy="573.3" rx="71.9" ry="70.4"/>
					<g>
						<ellipse class="st9" cx="1279.5" cy="573.3" rx="39.5" ry="38.7"/>
					</g>
					<g>
						<ellipse class="st10" cx="1279.5" cy="573.3" rx="16.9" ry="16.6"/>
					</g>
				</g>
				<g>
					<ellipse class="st5" cx="1636" cy="573.3" rx="71.9" ry="70.4"/>
					<g>
						<ellipse class="st9" cx="1636" cy="573.3" rx="39.5" ry="38.7"/>
					</g>
					<g>
						<ellipse class="st10" cx="1636" cy="573.3" rx="16.9" ry="16.6"/>
					</g>
				</g>
				<rect x="1367.5" y="539.9" class="st4" width="186.1" height="17"/>
				<path class="st6" d="M1389,566.4c0-1.1,0.1-2.1,0.1-3.1c0-59.2-49.1-107.3-109.6-107.3s-109.6,48-109.6,107.3
					c0,1.1,0,2.1,0.1,3.1L1389,566.4L1389,566.4z"/>
				<path class="st4" d="M1508.7,299.3l24.9-8.8c0,0,54.4,51.7,76.8,107.7c22.4,56,15.9,87.2,3,115.4
					c-14.6,31.9-31.8,30.2-31.8,30.2l-66.7-1c0,0,42.3-49.7,43.8-111C1560.2,366.8,1508.7,299.3,1508.7,299.3z"/>
				<path class="st6" d="M1720.5,536.7c-0.9-2.5-1.8-5-3-7.5c-20.2-44.6-73.5-64.6-119.1-44.8c-35.6,15.5-55.9,50.7-53.4,86.6
					L1720.5,536.7z"/>
				<g>
					<path class="st5" d="M1514.3,257.4h-20.5c-8.6,0-15.6-6.9-15.6-15.3v-3.5c0-8.4,7-15.3,15.6-15.3h20.5
						c8.6,0,15.6,6.9,15.6,15.3v3.5C1530,250.5,1522.9,257.4,1514.3,257.4z"/>
					<path class="st5" d="M1530.6,302l-7.2-3.4c0-0.1,4.4-9.6,2.1-26c-2.3-16.6-11-27.7-11.1-27.8l6.3-4.8
						c0.4,0.5,10.2,12.8,12.8,31.6C1536,290.5,1530.8,301.5,1530.6,302z"/>
				</g>
				<path class="st5" d="M1236.1,381.8v9.3c0,18.5,9.6,33.7,21.4,33.7h172.1c11.8,0,21.4-15.2,21.4-33.7v-9.3H1236.1z"/>
			</g>
			<g>
				<polygon class="st11" points="1405.7,179.6 1408.8,166 1374,147.4 1370.9,158.1 				"/>
				<g>
					<path class="st12" d="M1387.5,221.4c33.2,7.4,15.3-30.9,15.4-55.1l6.7-49l-13.3-5.3c0,0-8.1,12.9-18.6,20.3
						c-2.9,11.5-6.1,23.8-7.2,27C1371.1,165.6,1354.2,214,1387.5,221.4z"/>
					<path class="st13" d="M1436.3,79.8c4,13.9-3.9,22.9-0.3,29.1s5.5,5.9,5.4,8.3c0,2.4-4.5,2.7-5.1,5.8c-0.8,3.8-2.7,9.4-3.4,13.5
						c-0.8,5-0.1,8.3-4.4,9.9c-8,3-20-3.4-26.8-6.9c-9.6-5.1-17.6-18.3-17.5-27.4c-6.9-2.9-29.6-21-13.9-40
						C1385.9,53,1428.8,53.8,1436.3,79.8z"/>
					<path d="M1436.3,79.8c-2.5-2.1-23.9-6-28.8,4.8c-4.1,9.1-1.8,13.6-13.7,17.3c-5.9-8.9-13.6,1.1-8.6,5.3c1.1,0.9,0,3.9,0,3.9
						l2.3,13l-9.8,8.1c0,0-21.4-10.1-19.8-35.8c1.7-26.2,15.8-40.4,32.5-40.2C1420.4,56.4,1433.3,68.4,1436.3,79.8z"/>
					<g>
						<path class="st14" d="M1436.5,79c1.2-4.4-1.4-25.9-9.3-32.3c-8-6.4-26.6-10.9-33.4-10.2s-24.5,8.8-31.1,16.9
							c-6.3,7.8-3.3,27.1-2.8,32.5C1390.1,88.1,1409.2,86.2,1436.5,79z"/>
						<path class="st15" d="M1402.6,85.6c0,0,16.1,2.9,43.9,4.6c20.9,1.2,25.6-12.6,25.6-12.6l-35.5-6.7c0,0-1.7,2.7-10.9,7.2
							C1416.6,82.6,1402.6,85.6,1402.6,85.6z"/>
					</g>
					<path d="M1432.3,106.8c-0.4,1.9-2.3,3.1-4.2,2.6c-1.9-0.4-3.1-2.3-2.7-4.1c0.4-1.9,2.3-3.1,4.2-2.6
						C1431.5,103.1,1432.7,105,1432.3,106.8z"/>
					<path class="st16" d="M1433.1,134.8c0.7-2.6,1.6-5.5,2.2-8.3l-10.6-1.1C1424.8,125.5,1428.1,132.1,1433.1,134.8z"/>
					<path class="st13" d="M1393.7,107.1c-1.6,5.3-5.5,8.8-8.8,7.8c-3.3-0.9-4.7-6-3.2-11.3s5.5-8.8,8.8-7.8
						C1393.8,96.8,1395.3,101.8,1393.7,107.1z"/>
					<path d="M1435.7,100l-14.2-1.6l0.1-0.8c0.3-2,2.6-3.2,5.1-2.8l9.9,0.8L1435.7,100z"/>
					<path class="st14" d="M1395,36.9l-6.1,1.2c-1,0.2-2.1-0.5-2.3-1.5l0,0c-0.2-1,0.5-2,1.5-2.2l6.1-1.2c1-0.2,2.1,0.5,2.3,1.5l0,0
						C1396.8,35.7,1396.1,36.7,1395,36.9z"/>
					<path d="M1367.3,93.3c-0.5,3.8-4.2,6.5-8.1,6c-3.9-0.5-6.7-4.1-6.1-7.9c0.5-3.8,4.2-6.5,8.1-6
						C1365.1,86,1367.9,89.5,1367.3,93.3z"/>
					<path d="M1366.5,105.4c-0.5,3.8-4.2,6.5-8.1,6c-3.9-0.5-6.7-4.1-6.1-7.9c0.5-3.8,4.2-6.5,8.1-6
						C1364.3,98,1367,101.5,1366.5,105.4z"/>
					<path d="M1371,116.1c-0.5,3.8-4.2,6.5-8.1,6c-3.9-0.5-6.7-4.1-6.1-7.9c0.5-3.8,4.2-6.5,8.1-6
						C1368.8,108.7,1371.6,112.3,1371,116.1z"/>
					<path d="M1378.7,124.9c-0.5,3.8-4.2,6.5-8.1,6c-3.9-0.5-6.7-4.1-6.1-7.9c0.5-3.8,4.2-6.5,8.1-6
						C1376.5,117.5,1379.2,121,1378.7,124.9z"/>
					<path d="M1388.4,128.2c-0.5,3.8-4.2,6.5-8.1,6c-3.9-0.5-6.7-4.1-6.1-7.9c0.5-3.8,4.2-6.5,8.1-6
						C1386.2,120.8,1388.9,124.3,1388.4,128.2z"/>
				</g>
				<path class="st14" d="M1408.6,187.6l-8.8-13.3l-31.8-18c0,0-9.3,11.1-11.9,32.9c-1.7,14.3-27.2,123.5-27.2,123.5l64.4,7.4
					c0,0,14.9-54.6,20-77C1415.8,231.5,1408.6,187.6,1408.6,187.6z"/>
				<polygon class="st11" points="1399.7,177.7 1402.7,164.2 1368,145.6 1364.9,156.2 				"/>
				<polygon class="st17" points="1408.6,187.6 1402.6,165 1400.2,175.3 				"/>
				<path class="st18" d="M1322.8,322.2c0,0-14.6,30.1-4.9,46.8c13.8,23.9,123.9,25.2,123.9,25.2l3.6,117.8l33.4-1.2l13.1-153.9
					l-100.5-24.4L1322.8,322.2z"/>
				<path class="st12" d="M1393.8,319.6l-65.3-7.1c0,0-2.1,3.2-3.5,5.7c-1.4,2.5-3.8,6.9-3.8,6.9l70.1,7.6L1393.8,319.6z"/>
				<polygon class="st18" points="1353.1,328.5 1348.3,327.9 1349.8,314.8 1354.6,315.3 				"/>
				<path class="st13" d="M1485.1,309.5l9.4-10.5l-64.8-33.7c0,0-37.7-88.7-42.4-89.3c0,0-11.6-2-16.7,8
					c-5.1,9.9,40.3,99.7,40.3,99.7L1485.1,309.5z"/>
				<g>
					<path class="st11" d="M1378.2,226.6c3.5-0.5,11.1-2.2,15.6-3.9c7.2-2.8,13.1-7.8,15.1-10.7l-11.1-23
						c-6.6-14.3-14.3-16.2-21.8-13.7c-7.4,2.5-10.6,5.9-8.9,16.8C1368.8,203.1,1378.2,226.6,1378.2,226.6z"/>
					<path class="st16" d="M1390.5,214.8c-4.2,1.5-10.8,3.1-15.1,3.9c1.6,4.7,2.8,7.9,2.8,7.9c3.5-0.5,11.1-2.2,15.6-3.9
						c7.2-2.8,13.1-7.8,15.1-10.7l-3.4-7C1403.1,207.7,1397.2,212.4,1390.5,214.8z"/>
				</g>
				<path class="st19" d="M1386.2,332.2l-4.3-0.5c1.8,1.7,3.7,3.6,5.2,5.9c5.8,8.4,3.7,13.5,3.2,14.9l-29.5-23.1l-4.5-0.5l36,29.4
					c0,0,0.8-1,1.3-2.1c0.5-1.1,3.3-9-3.9-19.4C1388.7,335,1387.5,333.5,1386.2,332.2z"/>
				<g>
					<path class="st12" d="M1442.4,533v-19h31c0,0,24.2-1.9,27.6,3.7c2,3.2,1.2,15.3,1.2,15.3H1442.4z"/>
					<rect x="1442.3" y="528.1" class="st20" width="60.1" height="4.8"/>
				</g>
				<polygon class="st19" points="1441.3,492.6 1481.6,492.6 1482.8,514.1 1442.3,514.1 				"/>
				<g>
					<path class="st13" d="M1484.9,309.5c0,0,9.7,9.1,14.8,3.1c6.9-8.1,12.4-13.9,17.1-8.5c10.7,12.4,11.6,7.1,11.6,7.1
						s-2.5-16.4-16.8-18c-10.2-1.1-21.3,6.4-21.3,6.4L1484.9,309.5z"/>
				</g>
			</g>
			<ellipse class="st5" cx="1513.2" cy="314.4" rx="13" ry="12.7"/>
		</g>
	</g>
	<g>
		<polygon class="st11" points="518.3,1254.9 516.8,1240.7 556.8,1225.7 558.8,1237 		"/>
		<polygon class="st21" points="41.5,1641.1 216.5,1694.9 258.9,1576.7 83.8,1522.9 		"/>
		<polygon class="st1" points="55.4,1514.5 253.7,1575.4 279.3,1503.7 81.1,1442.8 		"/>
		<polygon class="st20" points="125.6,1456.4 280.6,1504 306.2,1432.4 151.3,1384.7 		"/>
		<g>
			<path class="st22" d="M532.8,1303c-37,3-11.9-33.7-8.4-58.5l0.1-51.1l15.2-3.6c0,0,6.8,14.3,17,23.3c1.4,12.1,3,25.2,3.8,28.6
				C558.9,1248.1,569.9,1299.9,532.8,1303z"/>
			<path class="st23" d="M501.3,1151.5c-6.4,13.6,0.7,23.9-4,29.8s-6.8,5.3-7.1,7.7c-0.3,2.4,4.5,3.4,4.7,6.7c0.3,4,1.5,10,1.7,14.2
				c0.2,5.2-1.2,8.5,3.3,10.8c8.2,4.2,22.1-0.7,30-3.5c11.2-3.9,21.8-16.3,23-25.7c7.9-2,35.2-17.5,21.1-39.1
				C559.8,1130.9,513.4,1125.9,501.3,1151.5z"/>
			<path d="M501.3,1151.5c3.1-1.8,26.8-2.9,30.4,8.9c3.1,9.8,0,14.2,12.2,19.6c7.7-8.3,14.5,3,8.5,6.5c-1.3,0.8-0.6,4-0.6,4
				l-4.5,12.9l9.3,9.6c0,0,24.7-7.4,26.7-34c2.1-27-11-43.5-29.1-45.6C522,1129.6,506.3,1140.2,501.3,1151.5z"/>
			<g>
				<path class="st14" d="M501.1,1150.7c-0.6-4.7,5.4-26.3,15-31.8c9.6-5.5,30.4-7.5,37.6-5.9c7.2,1.6,25.2,12.3,31.1,21.5
					c5.6,8.8-0.5,28.1-1.9,33.6C550,1166.2,529.6,1161.7,501.1,1150.7z"/>
				<path class="st15" d="M536.8,1162c0,0-17.8,0.8-48.1-1.3c-22.8-1.6-25.8-16.4-25.8-16.4l39.3-2c0,0,1.5,3,10.7,8.8
					C522.2,1157,536.8,1162,536.8,1162z"/>
			</g>
			<path d="M501.5,1179.7c0.2,2,2,3.5,4.2,3.3s3.7-1.9,3.5-3.9c-0.2-2-2-3.5-4.2-3.3C502.9,1176,501.4,1177.7,501.5,1179.7z"/>
			<path class="st16" d="M496.4,1208.2c-0.4-2.8-0.9-5.9-1.2-8.8l11.6,0.3C506.9,1199.8,502.3,1206.1,496.4,1208.2z"/>
			<path class="st23" d="M543.2,1185.2c0.9,5.6,4.7,9.7,8.4,9.2c3.7-0.5,6-5.5,5.1-11.1c-0.9-5.6-4.7-9.7-8.4-9.2
				C544.6,1174.6,542.3,1179.6,543.2,1185.2z"/>
			<path d="M498.9,1172.2l15.5,0.3l0-0.8c0-2-2.3-3.6-5.1-3.6l-10.8-0.5L498.9,1172.2z"/>
			<path class="st14" d="M552.3,1113.2l6.5,2.1c1.1,0.3,2.3-0.2,2.7-1.2l0,0c0.4-1-0.2-2.1-1.3-2.5l-6.5-2.1
				c-1.1-0.3-2.3,0.2-2.7,1.2l0,0C550.6,1111.7,551.2,1112.8,552.3,1113.2z"/>
			<path d="M573.8,1174.7c0,4,3.5,7.2,7.8,7.2c4.3,0,7.8-3.3,7.8-7.3c0-4-3.5-7.2-7.8-7.2C577.3,1167.4,573.8,1170.7,573.8,1174.7z"
				/>
			<path d="M572.9,1187.1c0,4,3.5,7.2,7.8,7.2c4.3,0,7.8-3.3,7.8-7.3c0-4-3.5-7.2-7.8-7.2S572.9,1183.1,572.9,1187.1z"/>
			<path d="M566.4,1197.5c0,4,3.5,7.2,7.8,7.2c4.3,0,7.8-3.3,7.8-7.3c0-4-3.5-7.2-7.8-7.2C569.9,1190.3,566.4,1193.5,566.4,1197.5z"
				/>
			<path d="M556.8,1205.4c0,4,3.5,7.2,7.8,7.2c4.3,0,7.8-3.3,7.8-7.3c0-4-3.5-7.2-7.8-7.2S556.8,1201.4,556.8,1205.4z"/>
			<path d="M545.8,1207.5c0,4,3.5,7.2,7.8,7.2c4.3,0,7.8-3.3,7.8-7.3c0-4-3.5-7.2-7.8-7.2C549.3,1200.2,545.8,1203.5,545.8,1207.5z"
				/>
		</g>
		<path class="st14" d="M514.2,1262.8l11.2-12.7l36.8-14.7c0,0,8.6,12.5,8.6,35.2c0,14.9-7.6,129.1-7.6,129.1h-70.3
			c0,0-0.6-67.5-0.4-82.4C492.8,1305.1,514.2,1262.8,514.2,1262.8z"/>
		<polygon class="st11" points="525.1,1253.7 523.5,1239.5 563.6,1224.5 565.5,1235.8 		"/>
		<polygon class="st17" points="514.2,1262.8 523.6,1240.3 524.8,1251.2 		"/>
		<polygon class="st24" points="494.1,1413.3 426.4,1566.5 402.8,1703.1 443.4,1704 479.1,1575.6 575.3,1432.3 		"/>
		<path class="st25" d="M563.6,1399.6c0,0,12.6,22.9,12.6,42.8c0,8.1,1.5,120.2,1.5,120.2l70.6,117.1l-33.7,16.5l-92.1-124.6
			l-29.6-172.1L563.6,1399.6L563.6,1399.6z"/>
		<path class="st22" d="M493,1399.6h70.6c0,0,1.8,3.5,3,6.2s3.2,7.4,3.2,7.4h-75.8L493,1399.6z"/>
		<rect x="535.4" y="1399.6" class="st25" width="5.2" height="13.7"/>
		<g>
			<path class="st22" d="M664.6,1704.2l-11.5-14.1c0,0-24.5,15.5-28.4,19.3c-3.9,5.9-20.6,6.7-22.2,13.2c-1,3.7,4,15.4,4,15.4
				s23.7-2.3,31-12.6C644.8,1715.1,664.6,1704.2,664.6,1704.2z"/>
			<path class="st20" d="M662.2,1701.1c0,0-14.1,9.3-25.3,22.3c-11.2,13-32.2,9.8-32.2,9.8l1.7,4.7c0,0,20.9,3.4,32.2-9.8
				c11.3-13.3,26.1-24,26.1-24L662.2,1701.1z"/>
		</g>
		<g>
			<path class="st22" d="M433.4,1738.6l4.9-17c0,0-28.2-8.4-33.9-8.9c-7.5,0.8-18.3-11-24.9-8.2c-3.8,1.6-10.6,12.4-10.6,12.4
				s16.5,16,29.7,15C411.9,1730.8,433.4,1738.6,433.4,1738.6z"/>
			<path class="st20" d="M434.5,1734.9c0,0-16.6-4.7-34.6-4.9c-17.9-0.2-28.1-17.5-28.1-17.5l-3,4.1c0,0,9.9,17.4,28.1,17.5
				c18.3,0.1,36.4,4.4,36.4,4.4L434.5,1734.9z"/>
		</g>
		<polygon class="st19" points="445.1,1699.7 402.9,1689.9 400.1,1712 438.2,1721.9 		"/>
		<path class="st19" d="M499,1413.3h4.1c0,0.1-0.7,9.8,4.9,18.3c6.3,9.6,16.7,11.8,18.9,12.1v-30.4h3.8v34.1c0,0-2,0.1-3.8,0
			c-1.9-0.1-14.4-2.1-22.2-13.9C498.4,1424,499,1413.7,499,1413.3z"/>
		<g>
			<polygon points="207.4,1704.2 220.4,1708.1 342.8,1330.2 330.2,1326.7 			"/>
			<polygon points="104.9,1660.4 101.1,1672 220.5,1708.2 223.9,1696.6 			"/>
			<polygon points="220.3,1708.2 317.4,1698 380.5,1496.7 329.3,1404 438.4,1391 437,1380.3 311.3,1395.2 368,1497.8 308.4,1687.8 
				219.3,1697.2 			"/>
			<ellipse cx="307.5" cy="1701.8" rx="39.5" ry="36.6"/>
		</g>
		<g>
			<path class="st23" d="M403.5,1381.1c0,0,1.5,2.6,7,3.1c5.7,0.5,6.7-1.3,6.7-1.3s3.1,4.2,7.4,5.3c4.3,1.1,12-2.3,12-2.3l-1.8-5.4
				l-22.1-2.9L403.5,1381.1z"/>
			<path class="st23" d="M437.7,1394.7l-2.9-14.3l60.1-37.2l33.9-74c5.3-13,17.1-17,21.6-14.7l10.7,10.6
				c4.5,2.3-12.4,30.4-14.7,35.3l-37.1,61.7L437.7,1394.7z"/>
			<g>
				<path class="st23" d="M434.8,1380.4l-19.9,2.2c0,0-0.1,4.8-8.1,9.5c-7.6,4.5-16.2,4.5-16.2,4.5s3.5,3.8,9.8,6.2
					c5.4,2.1,15,0.6,20-0.6c10.9-2.5,17.3-7.5,17.3-7.5l1.5-6.3L434.8,1380.4z"/>
			</g>
		</g>
		<g>
			<path class="st11" d="M548.3,1304.8c-3.7-0.6-12-2.6-16.8-4.5c-7.8-3.1-14.1-8.5-16.1-11.5l12.8-23.4
				c7.6-14.6,16.2-16.3,24.2-13.5c8,2.8,11.4,6.4,9.2,17.7C559.4,1280.8,548.3,1304.8,548.3,1304.8z"/>
			<path class="st16" d="M535.2,1292.2c4.6,1.7,11.7,3.5,16.3,4.5c-1.9,4.8-3.3,8.1-3.3,8.1c-3.7-0.6-12-2.6-16.8-4.5
				c-7.8-3.1-14.1-8.5-16.1-11.5l3.9-7.1C521.8,1284.5,528.1,1289.5,535.2,1292.2z"/>
		</g>
		<polygon class="st19" points="642.4,1668.9 609.8,1693.3 623.4,1710.8 655,1689.2 		"/>
	</g>
	<g>
		<ellipse class="st0" cx="1329.9" cy="1717.5" rx="166.8" ry="30.5"/>
		<g>
			<g>
				<path class="st26" d="M1439.5,1242.4l-2.8-15.1l-60.8,27.7c0,0-72.6-42.5-77.4-41.2c0,0-12.2,2.9-13,15
					c-0.8,12.1,93,52.4,93,52.4L1439.5,1242.4z"/>
				<g>
					<g>
						<path class="st26" d="M1436.5,1231.6l22.7-5.7l8.9,2.4l15.2,5.9c0,0-14.7,13.8-25.7,13.1c-11-0.7-18.1-4.8-18.1-4.8
							L1436.5,1231.6z"/>
					</g>
					<path class="st26" d="M1469.9,1222.4c0,0-1,2.9-6.2,4.4c-5.4,1.5-6.7-0.2-6.7-0.2s-2.2,4.9-6.1,6.8c-3.9,1.9-14.4-1.7-14.4-1.7
						v-4.2l23.8-7.2L1469.9,1222.4z"/>
				</g>
			</g>
			<g>
				<path class="st11" d="M1329.5,1269.4c2.9-2.4,8.8-8.2,11.9-12.4c5-6.6,7.5-14.7,7.6-18.4l-23.3-15.2c-14.2-9.6-22.4-7-27.7-0.5
					s-6.3,11.4,1.5,20.7C1307.4,1252.8,1329.5,1269.4,1329.5,1269.4z"/>
				<path class="st11" d="M1333.9,1251.4c-2.9,3.8-8.1,9-11.5,12.1c4.1,3.5,7.1,5.8,7.1,5.8c2.9-2.4,8.8-8.2,11.9-12.4
					c5-6.6,7.5-14.7,7.6-18.4l-7.1-4.6C1341.2,1237.7,1338.5,1245.4,1333.9,1251.4z"/>
			</g>
			<polygon class="st11" points="1329.6,1214.6 1331.1,1199.5 1291.8,1183.6 1289.9,1195.6 			"/>
			<g>
				<path class="st26" d="M1314.5,1264.4c36.4,2.9,11.3-35.7,7.6-62l-0.7-54.1l-15-3.7c0,0-6.5,15.2-16.5,24.8
					c-1.2,12.8-2.7,26.7-3.4,30.3C1288.4,1206.6,1278.2,1261.5,1314.5,1264.4z"/>
				<path class="st27" d="M1343.9,1103.8c6.4,14.4-0.5,25.3,4.2,31.5c4.7,6.2,6.7,5.5,7,8.1c0.3,2.6-4.4,3.6-4.5,7.1
					c-0.2,4.3-1.4,10.6-1.5,15.1c-0.1,5.5,1.2,9-3.1,11.4c-8,4.5-21.7-0.5-29.4-3.4c-11-4-21.5-17.1-22.8-26.9
					c-7.8-2-34.7-18.2-21.1-41.2C1286.3,1082.6,1331.8,1076.8,1343.9,1103.8z"/>
				<path d="M1343.9,1103.8c-3-1.9-26.3-2.8-29.7,9.7c-2.9,10.4,0.2,15-11.8,20.8c-7.6-8.7-14.2,3.3-8.2,7c1.3,0.8,0.7,4.2,0.7,4.2
					l4.5,13.7l-9.1,10.3c0,0-24.3-7.6-26.6-35.7c-2.3-28.6,10.3-46.1,28-48.5C1323.4,1080.9,1338.9,1091.9,1343.9,1103.8z"/>
				<g>
					<path class="st14" d="M1344,1102.9c0.5-4.9-5.5-27.8-15-33.5c-9.5-5.7-29.9-7.6-36.9-5.9c-7.1,1.8-24.6,13.3-30.3,23.1
						c-5.4,9.4,0.8,29.8,2.2,35.6C1296.3,1119.8,1316.2,1114.9,1344,1102.9z"/>
					<path class="st15" d="M1309.2,1115.3c0,0,17.5,0.7,47.2-1.8c22.3-1.9,25.1-17.6,25.1-17.6l-38.6-1.8c0,0-1.4,3.1-10.4,9.4
						C1323.5,1109.8,1309.2,1115.3,1309.2,1115.3z"/>
				</g>
				<path d="M1344,1133.6c-0.1,2.1-2,3.7-4.1,3.5c-2.1-0.1-3.7-2-3.5-4.1c0.1-2.1,2-3.7,4.1-3.5
					C1342.5,1129.7,1344.1,1131.5,1344,1133.6z"/>
				<path class="st16" d="M1349.2,1163.8c0.4-3,0.9-6.2,1-9.3l-11.4,0.5C1338.9,1155,1343.5,1161.6,1349.2,1163.8z"/>
				<path class="st27" d="M1303.1,1139.9c-0.8,5.9-4.5,10.4-8.1,9.8c-3.7-0.5-5.9-5.7-5.1-11.7c0.8-5.9,4.5-10.4,8.1-9.8
					C1301.6,1128.7,1303.9,1133.9,1303.1,1139.9z"/>
				<path d="M1346.5,1125.7l-15.2,0.5v-0.8c0-2.2,2.2-3.9,4.9-3.9l10.6-0.6L1346.5,1125.7z"/>
				<path class="st14" d="M1293.5,1063.7l-6.3,2.3c-1.1,0.4-2.3-0.2-2.6-1.2l0,0c-0.4-1.1,0.2-2.3,1.2-2.6l6.3-2.3
					c1.1-0.4,2.3,0.2,2.6,1.2l0,0C1295.1,1062.2,1294.5,1063.3,1293.5,1063.7z"/>
				<path d="M1273.1,1129c0,4.2-3.4,7.7-7.6,7.7c-4.2,0-7.7-3.4-7.7-7.6c0-4.2,3.4-7.7,7.6-7.7
					C1269.6,1121.4,1273,1124.8,1273.1,1129z"/>
				<path d="M1274,1142.2c0,4.2-3.4,7.7-7.6,7.7c-4.2,0-7.7-3.4-7.7-7.6c0-4.2,3.4-7.7,7.6-7.7
					C1270.5,1134.5,1274,1137.9,1274,1142.2z"/>
				<path d="M1280.6,1153.1c0,4.2-3.4,7.7-7.6,7.7c-4.2,0-7.7-3.4-7.7-7.6c0-4.2,3.4-7.7,7.6-7.7
					C1277.1,1145.5,1280.5,1148.9,1280.6,1153.1z"/>
				<path d="M1290.1,1161.4c0,4.2-3.4,7.7-7.6,7.7c-4.2,0-7.7-3.4-7.7-7.6c0-4.2,3.4-7.7,7.6-7.7
					C1286.6,1153.8,1290,1157.2,1290.1,1161.4z"/>
				<path d="M1300.8,1163.5c0,4.2-3.4,7.7-7.6,7.7c-4.2,0-7.7-3.4-7.7-7.6c0-4.2,3.4-7.7,7.6-7.7
					C1297.3,1155.8,1300.8,1159.3,1300.8,1163.5z"/>
			</g>
			<path class="st14" d="M1333.6,1222.9l-11-13.4l-36.1-15.6c0,0-8.5,13.2-8.4,37.2c0,15.8,7.4,136.6,7.4,136.6h69.3
				c0,0,0.3-71.4,0-87.2C1354.6,1267.7,1333.6,1222.9,1333.6,1222.9z"/>
			<polygon class="st11" points="1322.9,1213.3 1324.4,1198.2 1285.1,1182.3 1283.2,1194.3 			"/>
			<polygon class="st17" points="1333.6,1222.9 1324.3,1199.1 1323.2,1210.6 			"/>
			<polygon class="st28" points="1353.3,1382.2 1419.6,1544.3 1442.8,1688.9 1403,1689.9 1368,1553.9 1273.7,1402.3 			"/>
			<path class="st18" d="M1285.1,1367.7c0,0-12.4,24.3-12.4,45.3c0,8.6-1.5,127.3-1.5,127.3l-69.3,124l33,17.5l90.4-131.9
				l29.1-182.1L1285.1,1367.7L1285.1,1367.7z"/>
			<path class="st26" d="M1354.3,1367.7h-69.2c0,0-1.8,3.7-3,6.6c-1.2,2.9-3.1,7.9-3.1,7.9h74.3L1354.3,1367.7z"/>
			<rect x="1307.6" y="1367.7" class="st18" width="5.1" height="14.5"/>
			<g>
				<path class="st26" d="M1186.1,1690l11.3-14.9c0,0,24,16.4,27.8,20.5c3.9,6.3,20.2,7.1,21.8,14c0.9,4-4,16.3-4,16.3
					s-23.3-2.4-30.4-13.3C1205.5,1701.6,1186.1,1690,1186.1,1690z"/>
				<path class="st20" d="M1188.5,1686.8c0,0,13.9,9.8,24.8,23.6c11,13.8,31.5,10.4,31.5,10.4l-1.6,5c0,0-20.5,3.6-31.5-10.4
					c-11.1-14.1-25.6-25.4-25.6-25.4L1188.5,1686.8z"/>
			</g>
			<g>
				<path class="st26" d="M1412.8,1726.4l-4.9-18c0,0,27.6-8.9,33.2-9.4c7.3,0.8,17.9-11.6,24.4-8.7c3.7,1.7,10.4,13.1,10.4,13.1
					s-16.2,16.9-29.2,15.8C1433.9,1718.2,1412.8,1726.4,1412.8,1726.4z"/>
				<path class="st20" d="M1411.8,1722.6c0,0,16.3-4.9,33.9-5.2c17.6-0.2,27.6-18.5,27.6-18.5l2.9,4.4c0,0-9.7,18.4-27.6,18.5
					c-17.9,0.1-35.7,4.7-35.7,4.7L1411.8,1722.6z"/>
			</g>
			<polygon class="st19" points="1401.4,1685.3 1442.8,1674.9 1445.5,1698.3 1408.1,1708.7 			"/>
			<path class="st19" d="M1348.4,1382.2h-4c0,0.1,0.7,10.4-4.8,19.3c-6.2,10.2-16.4,12.5-18.5,12.8v-32.2h-3.8v36.1c0,0,2,0.1,3.8,0
				c1.8-0.1,14.1-2.2,21.8-14.8C1349.1,1393.5,1348.5,1382.6,1348.4,1382.2z"/>
			<polygon class="st19" points="1207.9,1652.7 1239.8,1678.5 1226.6,1697 1195.6,1674.2 			"/>
			<path class="st27" d="M1411.7,1385.1c0,0-2.1,2.3-7.4,1.5c-5.5-0.8-6-3-6-3s-4,3.5-8.4,3.6c-4.4,0.1-10.8-5.3-10.8-5.3l3.1-5.1
				l21.8,2.3L1411.7,1385.1z"/>
			<g>
				<rect x="1362.5" y="1212.4" class="st21" width="193" height="23.2"/>
			</g>
			<g>
				<rect x="1377.1" y="1189.1" class="st1" width="193" height="23.2"/>
			</g>
			<g>
				<rect x="1367.1" y="1166" class="st20" width="193" height="23.2"/>
			</g>
			<g>
				<g>
					<path class="st29" d="M1442.4,1365.6l-2.1-5l-6.9-2.5l-2.7,3l-1.7,10.7l11.8,4.3L1442.4,1365.6z"/>
					<path class="st30" d="M1430.2,1451.5l-43.2-15.9c-2.8-1-4.3-4.2-3.2-7l23.7-64.1c1-2.8,4.2-4.3,7-3.2l43.2,15.9
						c2.8,1,4.3,4.2,3.2,7l-23.7,64.1C1436.1,1451.1,1433,1452.6,1430.2,1451.5z"/>
					
						<rect x="1387.1" y="1382.3" transform="matrix(0.3462 -0.9382 0.9382 0.3462 -389.474 2253.9302)" class="st31" width="70.5" height="48.2"/>
					<polygon class="st1" points="1441.1,1376.2 1429,1371.7 1424.5,1372 1423,1376.1 1442.6,1383.4 1444.1,1379.2 					"/>
					<path class="st1" d="M1447.2,1360.8l-6.9-2.6l-5,3l-6.1,10.5l11.8,4.4l6.2-10.7L1447.2,1360.8z"/>
					
						<rect x="1428.4" y="1368.7" transform="matrix(0.3462 -0.9382 0.9382 0.3462 -366.9562 2248.0481)" class="st32" width="1.9" height="37.3"/>
					
						<rect x="1425.3" y="1377.1" transform="matrix(0.3462 -0.9382 0.9382 0.3462 -376.9216 2250.6514)" class="st32" width="1.9" height="37.3"/>
					
						<rect x="1422.4" y="1385.1" transform="matrix(0.3462 -0.9382 0.9382 0.3462 -386.3096 2253.1028)" class="st32" width="1.9" height="37.3"/>
					
						<rect x="1419.3" y="1393.5" transform="matrix(0.3462 -0.9382 0.9382 0.3462 -396.2201 2255.6943)" class="st32" width="1.9" height="37.3"/>
					
						<rect x="1416.6" y="1400.9" transform="matrix(0.3462 -0.9382 0.9382 0.3462 -404.9437 2257.9673)" class="st32" width="1.9" height="37.3"/>
					
						<rect x="1413.3" y="1409.6" transform="matrix(0.3462 -0.9382 0.9382 0.3462 -415.2638 2260.6582)" class="st32" width="1.9" height="37.3"/>
				</g>
				
					<rect x="1428.6" y="1369.4" transform="matrix(0.3462 -0.9382 0.9382 0.3462 -362.0542 2244.8364)" class="st33" width="1.9" height="25.5"/>
				
					<rect x="1418.2" y="1422.4" transform="matrix(0.3462 -0.9382 0.9382 0.3462 -418.5512 2269.7202)" class="st33" width="1.9" height="25.5"/>
				
					<rect x="1425.8" y="1418.5" transform="matrix(0.3462 -0.9382 0.9382 0.3462 -405.861 2271.4768)" class="st33" width="1.9" height="16.8"/>
			</g>
			<path class="st27" d="M1376.8,1391.9l6.5-13.9l-47.4-52.7l-12.9-84.1c-1.6-14.7-11.8-21.6-16.7-20.3l-12.9,8.3
				c-4.8,1.3,3.9,34.2,4.8,39.8l19.2,72.2L1376.8,1391.9z"/>
			<g>
				<path class="st27" d="M1382.1,1376.9l18.3,7.1l7.1,5.9l11.4,11.6c0,0-3.3,5.8-10,6.7c-5.7,0.8-14.4-3-18.9-5.4
					c-9.7-5.2-14.5-11.9-14.5-11.9L1382.1,1376.9z"/>
			</g>
			<g>
				<path class="st11" d="M1295.2,1273c3.7,0.3,12.1,0.2,17.2-0.6c8.2-1.3,15.6-5.3,18.3-7.9l-6.1-27.1
					c-3.4-16.8-11.1-20.7-19.5-19.7c-8.3,1-12.5,3.8-13.3,15.9C1290.9,1245.7,1295.2,1273,1295.2,1273z"/>
				<path class="st16" d="M1310.9,1263.2c-4.8,0.7-12,0.8-16.7,0.7c0.5,5.3,1,9.1,1,9.1c3.7,0.3,12.1,0.2,17.2-0.6
					c8.2-1.3,15.6-5.3,18.3-7.9l-1.9-8.2C1325.7,1258.5,1318.3,1262.1,1310.9,1263.2z"/>
			</g>
			<rect x="1422.2" y="1166" class="st3" width="5.5" height="69.6"/>
			<rect x="1502.1" y="1166" class="st3" width="5.5" height="69.6"/>
			<polygon class="st3" points="1463.6,1166 1439.3,1148.5 1432.5,1158.3 			"/>
			<polygon class="st3" points="1488.3,1152.9 1463.6,1166 1494,1161.6 			"/>
			<polygon class="st34" points="1463.6,1166 1476.2,1152.3 1467.3,1152.3 			"/>
		</g>
	</g>
	<g>
		<ellipse class="st0" cx="427.5" cy="703.6" rx="140.1" ry="31.2"/>
		<g>
			<g>
				<g>
					<ellipse cx="426" cy="76.9" rx="45.8" ry="47.6"/>
					<path class="st12" d="M426,181.3c24.1,0,17.6-10.9,21-17.3l-5.5-31.1h-31.1c0,0-4.5,23.9-5.5,31.2
						C407.4,170.9,401.8,181.3,426,181.3z"/>
					<path class="st13" d="M468.7,89c0,30-7.5,62.1-42.8,62.1S383.1,119,383.1,89c0-30,18.6-42.5,42.2-42.5
						C449,46.5,468.7,59,468.7,89z"/>
					<path class="st13" d="M393.9,99.2c0,6.1-4.8,11.1-10.7,11.1c-5.9,0-10.7-5-10.7-11.1c0-6.1,4.8-11.1,10.7-11.1
						C389.1,88.1,393.9,93,393.9,99.2z"/>
					<path class="st13" d="M479.9,99.2c0,6.1-4.8,11.1-10.7,11.1c-5.9,0-10.7-5-10.7-11.1c0-6.1,4.8-11.1,10.7-11.1
						C475.1,88.1,479.9,93,479.9,99.2z"/>
					<g>
						<g>
							<path class="st35" d="M414.9,97.2h-20.6c-3.2,0-5.7-2.4-5.7-5.2v-7.8c0-2.9,2.6-5.2,5.7-5.2h20.6c3.2,0,5.7,2.4,5.7,5.2V92
								C420.6,94.8,418,97.2,414.9,97.2z"/>
							<path class="st35" d="M457.5,97.2h-20.6c-3.2,0-5.7-2.4-5.7-5.2v-7.8c0-2.9,2.6-5.2,5.7-5.2h20.6c3.2,0,5.7,2.4,5.7,5.2V92
								C463.3,94.8,460.7,97.2,457.5,97.2z"/>
						</g>
						<g>
							<path d="M414.9,98.7h-20.6c-4,0-7.3-3-7.3-6.7v-7.8c0-3.7,3.3-6.7,7.3-6.7h20.6c4,0,7.3,3,7.3,6.7V92
								C422.2,95.7,418.9,98.7,414.9,98.7z M394.3,80.4c-2.3,0-4.1,1.7-4.1,3.8V92c0,2.1,1.9,3.8,4.1,3.8h20.6
								c2.3,0,4.1-1.7,4.1-3.8v-7.8c0-2.1-1.8-3.8-4.1-3.8H394.3z"/>
							<path d="M457.5,98.7H437c-4,0-7.3-3-7.3-6.7v-7.8c0-3.7,3.3-6.7,7.3-6.7h20.6c4,0,7.3,3,7.3,6.7V92
								C464.9,95.7,461.6,98.7,457.5,98.7z M437,80.4c-2.3,0-4.1,1.7-4.1,3.8V92c0,2.1,1.8,3.8,4.1,3.8h20.6c2.3,0,4.1-1.7,4.1-3.8
								v-7.8c0-2.1-1.8-3.8-4.1-3.8H437z"/>
						</g>
						<g>
							<rect x="422.2" y="85.4" width="9" height="2.9"/>
						</g>
						<g>
							<polygon points="470.6,88.5 463,88.8 463.5,85.9 470.9,85.7 							"/>
						</g>
						<g>
							<polygon points="381.7,88.5 389.3,88.8 388.7,85.9 381,85.7 							"/>
						</g>
					</g>
					<path d="M408,87.7c0,1.5-1.4,2.8-3,2.8c-1.7,0-3-1.2-3-2.8c0-1.5,1.4-2.8,3-2.8C406.6,84.9,408,86.1,408,87.7z"/>
					<path d="M450.3,87.7c0,1.5-1.4,2.8-3,2.8s-3-1.2-3-2.8c0-1.5,1.4-2.8,3-2.8S450.3,86.1,450.3,87.7z"/>
					<path d="M433.8,109.8h-15.3c0,0-14.5,5.9-14.5,13.2v14.8c0,7.3,6.5,13.2,14.5,13.2h15.3c8,0,14.5-5.9,14.5-13.2v-14.8
						C448.3,115.8,433.8,109.8,433.8,109.8z M441.4,130.6c0,4.6-4.1,8.3-9.1,8.3h-12.1c-5,0-9.1-3.7-9.1-8.3V123
						c0-4.6,9.1-8.3,9.1-8.3h12.1c0,0,9.1,3.7,9.1,8.3V130.6z"/>
					<path class="st16" d="M437.5,120.8c0,0-5.1,7.6-11.4,7.6c-6.3,0-11.4-7.6-11.4-7.6H437.5z"/>
				</g>
				<g class="st36">
					<path class="st37" d="M425.9,52.9c20.9,0,26.4,9.9,45.5,22.5c1.9-4.8,1.9-34.1-6.9-42.1c-8.8-8-30.4-15-38.6-15
						c-8.2,0-30.4,7.1-39.2,15.4c-8.4,8-8.3,36.8-6.3,41.5C397.1,62.3,405,52.9,425.9,52.9z"/>
					<path class="st38" d="M426.1,50.9c0,0-0.1,0-0.2,0s-0.1,0-0.2,0c-25.1,0-35.4,13.6-45.4,24.4c18.1,4.7,22.3-20.4,44.9-20.7
						c0,0,0.4,0,0.7,0c0.2,0,0.7,0,0.7,0c22.7,0.3,26.9,25.3,44.9,20.7C461.5,64.5,451.1,50.9,426.1,50.9z"/>
					<path class="st37" d="M429.7,19.6h-7.5c-1.3,0-2.3-1-2.3-2.1l0,0c0-1.2,1-2.1,2.3-2.1h7.5c1.3,0,2.3,1,2.3,2.1l0,0
						C432,18.6,430.9,19.6,429.7,19.6z"/>
				</g>
			</g>
			<g>
				<path class="st12" d="M410.6,704.1v-21.2h-37.2c0,0-29-2.1-33.2,4.1c-2.4,3.6-1.5,17.1-1.5,17.1H410.6z"/>
				<rect x="338.6" y="698.7" class="st20" width="72.1" height="5.4"/>
			</g>
			<g>
				<path class="st12" d="M441.3,704.1v-21.2h37.2c0,0,29-2.1,33.2,4.1c2.4,3.6,1.5,17.1,1.5,17.1H441.3z"/>
				<rect x="441.2" y="698.7" class="st20" width="72.1" height="5.4"/>
			</g>
			<path class="st14" d="M492.1,371.1l20.3-0.7l25-92.2c0,0-8.7-42.2-21.5-73.1c-7.8-18.7-14-35.4-22.4-35.4
				c-22.4,0-16.6,8.7-16.6,8.7c-5.4,1.3,4.6,32.7,5.6,38.4l21.9,61.4L492.1,371.1z"/>
			<path class="st14" d="M359.5,371.1l-20.3-0.7l-25-92.2c0,0,8.7-42.2,21.5-73.1c7.8-18.7,14-35.4,22.4-35.4
				c22.4,0,16.6,8.7,16.6,8.7c5.4,1.3-4.6,32.7-5.6,38.4l-21.9,61.4L359.5,371.1z"/>
			<path class="st18" d="M362,355.3c0,0-3.3,75-3.3,96.5c0,21.5,9.7,231.1,9.7,231.1h42.2l13.6-250.8h3.7L441.3,683h42.2
				c0,0,9.7-208,9.7-230.2c0-22.2-3.2-97.5-3.2-97.5H362z"/>
			<path class="st16" d="M450.3,218.5h-47.2v-50.2c0,0,8.1,10.6,22.7,10.6s24.5-12.6,24.5-12.6V218.5z"/>
			<polygon class="st12" points="490,355.3 361.9,355.3 361.4,370.2 490.5,370.2 			"/>
			<rect x="454" y="355.3" class="st18" width="5.8" height="14.8"/>
			<rect x="392.2" y="355.3" class="st18" width="5.8" height="14.8"/>
			<path class="st14" d="M494.4,169.8c-4.3-1.3-50.4-5.4-50.4-5.4l-18.8,53.3L407,164.4c0,0-45.9,4.1-50.2,5.4
				c5.1,4.4,5.8,15.6,5.2,28.7c-0.8,16.1-0.3,156.9-0.3,156.9h128c0,0-0.3-144.5-0.6-160.7C488.8,181.6,489.3,174.2,494.4,169.8z"/>
			<polygon class="st17" points="425.6,217.7 406.1,157.5 408.1,188.9 			"/>
			<polygon class="st11" points="388.7,197.7 408.1,188.9 406.1,157.5 391.2,165.9 			"/>
			<polygon class="st17" points="425.6,217.7 445.1,157.5 443.1,188.9 			"/>
			<polygon class="st11" points="462.5,197.7 443.1,188.9 445.1,157.5 460.1,165.9 			"/>
			<g>
				<polygon class="st11" points="413.4,231.3 393,235.4 372.6,231.3 372.6,220.7 413.4,220.7 				"/>
				<ellipse class="st16" cx="393" cy="230" rx="2.1" ry="2"/>
			</g>
			<g>
				<polygon class="st16" points="478.4,238.3 437.6,238.3 437.6,218 454.8,218 478.4,218 				"/>
				<polygon class="st29" points="456,218.1 456,215.4 454.4,218.1 				"/>
				<rect x="456" y="215.4" class="st1" width="4.1" height="5.3"/>
				<rect x="454.4" y="225.4" class="st1" width="20.2" height="1.7"/>
				<rect x="454.4" y="231" class="st1" width="20.2" height="1.7"/>
				<rect x="440.5" y="223.2" class="st1" width="12.3" height="11.8"/>
			</g>
			<polygon class="st19" points="363.1,659 411.9,659 410.6,683 362,683 			"/>
			<polygon class="st19" points="440,659 488.3,659 489.8,683 441.2,683 			"/>
			<path class="st19" d="M491.9,407.1c-0.6-0.1-15.7-1.9-24.6-15.1c-6.9-10.3-6.2-21.4-6.2-21.8h4.5c0,0.1-0.8,10.6,5.3,19.8
				c7.8,11.6,20.7,13.2,20.8,13.2L491.9,407.1z"/>
			<path class="st19" d="M360,407.1c0.6-0.1,15.7-1.9,24.6-15.1c6.9-10.3,6.2-21.4,6.2-21.8h-4.5c0,0.1,0.8,10.6-5.3,19.8
				c-7.8,11.6-20.7,13.2-20.8,13.2L360,407.1z"/>
			<path class="st19" d="M429.5,413.7c-3.4,0-9.2-0.5-13.5-3.4c-4.9-3.4-4.3-29.2-3.8-40.1l4.2,0c-0.7,16,0,34.8,2.2,37
				c3.4,2.4,8.5,2.6,11.3,2.6v-39.6h4.3v43.2l-1.9,0.2C432.2,413.6,431.1,413.7,429.5,413.7z"/>
			<g>
				<rect x="418.8" y="353.9" class="st39" width="3.8" height="17.8"/>
				<rect x="422" y="370.2" class="st39" width="11.4" height="1.5"/>
				<rect x="419.9" y="361.9" class="st20" width="6.5" height="1.7"/>
				<rect x="422" y="353.9" class="st39" width="11.4" height="1.5"/>
			</g>
			<g>
				<rect x="315.4" y="364.4" class="st21" width="220.3" height="22"/>
			</g>
			<g>
				<rect x="306.9" y="320.7" class="st21" width="220.3" height="22"/>
			</g>
			<g>
				<rect x="328.3" y="277" class="st21" width="220.3" height="22"/>
			</g>
			<g>
				<rect x="319" y="342.5" class="st39" width="220.3" height="22"/>
			</g>
			<g>
				<rect x="314" y="298.9" class="st39" width="220.3" height="22"/>
			</g>
			<path class="st13" d="M373.9,389.1c0,0,5.3-5.7-1.8-10.2c-5.3-0.3-11,0.4-11.6,1.3c-3.1,5-8.9,6.1-8.9,6.1s1.1,2.9,7.2,4
				C363.4,391.1,373.9,389.1,373.9,389.1z"/>
			<path class="st13" d="M476.7,389.1c0,0-5.3-5.7,1.8-10.2c5.3-0.3,11,0.4,11.6,1.3c3.1,5,8.9,6.1,8.9,6.1s-1.1,2.9-7.2,4
				C487.3,391.1,476.7,389.1,476.7,389.1z"/>
		</g>
	</g>
	<g>
		<ellipse class="st0" cx="881.1" cy="1584.4" rx="231.9" ry="56.6"/>
		<g>
			<path class="st40" d="M1142.5,759.3c0,0,34.3-45.5,91.1-27.2c56.8,18.3,135.1,139,135.1,139l-175.9-44.9L1142.5,759.3z"/>
			<g>
				<ellipse cx="880.3" cy="449.9" rx="75.7" ry="86.4"/>
				<path class="st12" d="M880.3,639.4c39.9,0,29-19.8,34.7-31.5l-9.1-56.5h-51.5c0,0-7.4,43.4-9.1,56.6
					C849.6,620.5,840.4,639.4,880.3,639.4z"/>
				<path class="st13" d="M951,471.8c0,54.4-12.4,112.7-70.8,112.7s-70.8-58.3-70.8-112.7s30.7-77.1,69.8-77.1
					C918.3,394.7,951,417.5,951,471.8z"/>
				<ellipse class="st13" cx="809.5" cy="490.3" rx="17.7" ry="20.2"/>
				<path class="st13" d="M969.5,490.3c0,11.2-7.9,20.2-17.7,20.2c-9.8,0-17.7-9-17.7-20.2s7.9-20.2,17.7-20.2
					C961.6,470.1,969.5,479.2,969.5,490.3z"/>
				<g>
					<g>
						<path class="st35" d="M861.9,486.7h-34c-5.2,0-9.5-4.3-9.5-9.5V463c0-5.2,4.3-9.5,9.5-9.5h34c5.2,0,9.5,4.3,9.5,9.5v14.2
							C871.4,482.4,867.1,486.7,861.9,486.7z"/>
						<path class="st35" d="M932.5,486.7h-34c-5.2,0-9.5-4.3-9.5-9.5V463c0-5.2,4.3-9.5,9.5-9.5h34c5.2,0,9.5,4.3,9.5,9.5v14.2
							C942,482.4,937.7,486.7,932.5,486.7z"/>
					</g>
					<g>
						<path d="M861.9,489.4h-34c-6.7,0-12.1-5.5-12.1-12.1V463c0-6.7,5.5-12.1,12.1-12.1h34c6.7,0,12.1,5.5,12.1,12.1v14.2
							C874.1,483.9,868.6,489.4,861.9,489.4z M827.9,456.2c-3.8,0-6.8,3.1-6.8,6.8v14.2c0,3.8,3.1,6.8,6.8,6.8h34
							c3.8,0,6.8-3.1,6.8-6.8V463c0-3.8-3.1-6.8-6.8-6.8H827.9z"/>
						<path d="M932.5,489.4h-34c-6.7,0-12.1-5.5-12.1-12.1V463c0-6.7,5.5-12.1,12.1-12.1h34c6.7,0,12.1,5.5,12.1,12.1v14.2
							C944.7,483.9,939.2,489.4,932.5,489.4z M898.5,456.2c-3.8,0-6.8,3.1-6.8,6.8v14.2c0,3.8,3.1,6.8,6.8,6.8h34
							c3.8,0,6.8-3.1,6.8-6.8V463c0-3.8-3.1-6.8-6.8-6.8H898.5z"/>
					</g>
					<g>
						<rect x="874.1" y="465.4" width="15" height="5.3"/>
					</g>
					<g>
						<polygon points="954.1,470.9 941.5,471.4 942.4,466.2 954.7,465.8 						"/>
					</g>
					<g>
						<polygon points="807.1,470.9 819.6,471.4 818.7,466.2 806,465.8 						"/>
					</g>
				</g>
				<path d="M850.5,469.4c0,2.8-2.3,5-5,5s-5-2.3-5-5s2.3-5,5-5S850.5,466.6,850.5,469.4z"/>
				<path d="M920.5,469.4c0,2.8-2.3,5-5,5s-5-2.3-5-5s2.3-5,5-5S920.5,466.6,920.5,469.4z"/>
				<path d="M893.2,509.6H868c0,0-24,10.8-24,24v26.9c0,13.2,10.8,24,24,24h25.2c13.2,0,24-10.8,24-24v-26.9
					C917.2,520.4,893.2,509.6,893.2,509.6z M905.8,547.2c0,8.3-6.8,15.1-15.1,15.1h-20.1c-8.3,0-15.1-6.8-15.1-15.1v-13.8
					c0-8.3,15.1-15.1,15.1-15.1h20.1c0,0,15.1,6.8,15.1,15.1V547.2z"/>
				<path class="st16" d="M899.4,529.5c0,0-8.4,13.8-18.9,13.8c-10.4,0-18.9-13.8-18.9-13.8H899.4z"/>
			</g>
			<path class="st14" d="M880.2,406.3c34.5,0,43.6,18,75.3,40.9c3.2-8.7,3.1-61.9-11.4-76.5c-14.5-14.6-50.4-27.1-63.9-27.1
				s-50.2,12.9-64.8,28c-14,14.4-13.7,66.7-10.5,75.4C832.5,423.4,845.7,406.3,880.2,406.3z"/>
			<path class="st15" d="M880.5,402.7c-0.1,0-0.2,0-0.3,0c-0.1,0-0.2,0-0.3,0c-41.5,0-58.6,24.6-75.2,44.3
				c29.9,8.5,36.8-37,74.3-37.5c0,0,0.7,0,1.1,0c0.4,0,1.1,0,1.1,0c37.5,0.5,44.5,46,74.3,37.5C939,427.4,922,402.7,880.5,402.7z"/>
			<path class="st14" d="M886.4,345.9H874c-2.1,0-3.8-1.7-3.8-3.8l0,0c0-2.1,1.7-3.8,3.8-3.8h12.5c2.1,0,3.8,1.7,3.8,3.8l0,0
				C890.2,344.2,888.5,345.9,886.4,345.9z"/>
			<g>
				<path class="st13" d="M1126.5,915.8l40.4,6.8l13.3,10.9l21.1,21.6c0,0-35.5,12-53.5,2.4c-18-9.6-26.9-22.1-26.9-22.1
					L1126.5,915.8z"/>
			</g>
			<path class="st14" d="M1109,929.6l21.5-33.7l-76.4-92.5l-33.3-147.8c-3-27.2-21.9-40.1-30.9-37.6l-24,15.5
				c-9,2.4,7.2,63.5,8.9,73.8l35.6,134.1L1109,929.6z"/>
			<polygon class="st11" points="1118.4,943.2 1143.3,905 1126,887.6 1098.2,925.4 			"/>
			<g>
				<path class="st13" d="M631.7,915.8l-40.4,6.8L578,933.4L557,955c0,0,35.5,12,53.5,2.4c18-9.6,26.9-22.1,26.9-22.1L631.7,915.8z"
					/>
			</g>
			<path class="st14" d="M649.2,929.6l-21.5-33.7l76.4-92.5l33.3-147.8c3-27.2,21.9-40.1,30.9-37.6l24,15.5c9,2.4-7.2,63.5-8.9,73.8
				l-35.6,134.1L649.2,929.6z"/>
			<polygon class="st11" points="639.8,943.2 614.8,905 632.2,887.6 660,925.4 			"/>
			<g>
				<path class="st12" d="M854.7,1587.1v-38.5h-61.5c0,0-48-3.8-54.9,7.5c-4,6.5-2.5,31-2.5,31H854.7z"/>
				<rect x="735.6" y="1577.2" class="st20" width="119.3" height="9.8"/>
			</g>
			<g>
				<path class="st12" d="M905.5,1587.1v-38.5H967c0,0,48-3.8,54.9,7.5c4,6.5,2.5,31,2.5,31H905.5z"/>
				<rect x="905.3" y="1577.2" class="st20" width="119.3" height="9.8"/>
			</g>
			<path class="st18" d="M774.3,954.3c0,0-5.4,136.1-5.4,175.1c0,39,16,419.3,16,419.3h69.8l22.4-455.1h6.2l22.2,455.1h69.8
				c0,0,16-377.4,16-417.6c0-40.2-5.3-176.9-5.3-176.9L774.3,954.3L774.3,954.3z"/>
			<path class="st16" d="M920.5,706.1h-78.2V615c0,0,13.3,19.2,37.6,19.2c24.2,0,40.6-22.8,40.6-22.8V706.1z"/>
			<polygon class="st12" points="986.1,954.3 774.2,954.3 773.3,981.2 986.9,981.2 			"/>
			<rect x="926.6" y="954.3" class="st18" width="9.5" height="26.9"/>
			<rect x="824.3" y="954.3" class="st18" width="9.5" height="26.9"/>
			<path class="st14" d="M993.5,617.6c-7.2-2.4-83.3-9.7-83.3-9.7l-31.1,96.7l-30.3-96.7c0,0-76,7.4-83.1,9.7
				c8.5,8,9.6,28.3,8.6,52.1c-1.3,29.3-0.6,284.6-0.6,284.6h211.9c0,0,0.6-255.4-0.7-284.6C983.9,645.9,985,625.6,993.5,617.6z"/>
			<polygon class="st17" points="879.6,704.6 847.3,595.3 850.6,652.4 			"/>
			<polygon class="st11" points="818.5,668.3 850.6,652.4 847.3,595.3 822.6,610.6 			"/>
			<polygon class="st17" points="879.6,704.6 911.8,595.3 908.6,652.4 			"/>
			<polygon class="st11" points="940.6,668.3 908.6,652.4 911.8,595.3 936.6,610.6 			"/>
			<g>
				<polygon class="st11" points="859.4,729.2 825.7,736.7 791.9,729.2 791.9,710.1 859.4,710.1 				"/>
				<path class="st16" d="M829.2,727c0,2-1.6,3.5-3.5,3.5s-3.5-1.6-3.5-3.5c0-2,1.6-3.5,3.5-3.5C827.6,723.4,829.2,725,829.2,727z"
					/>
			</g>
			<g class="st36">
				<polygon class="st41" points="967,742 899.4,742 899.4,705.2 927.9,705.2 967,705.2 				"/>
				<polygon class="st42" points="929.8,705.2 929.8,700.4 927.3,705.2 				"/>
				<rect x="929.8" y="700.4" class="st43" width="6.8" height="9.6"/>
				<rect x="927.3" y="718.5" class="st43" width="33.4" height="3.1"/>
				<rect x="927.3" y="728.7" class="st43" width="33.4" height="3.1"/>
				<rect x="904.2" y="714.5" class="st43" width="20.4" height="21.4"/>
			</g>
			<polygon class="st19" points="776.2,1505.3 856.9,1505.3 854.7,1548.8 774.3,1548.8 			"/>
			<polygon class="st19" points="903.4,1505.3 983.3,1505.3 985.7,1548.8 905.3,1548.8 			"/>
			<path class="st19" d="M989.3,1048.2c-1-0.1-26-3.4-40.7-27.4c-11.4-18.6-10.3-38.8-10.2-39.6h7.4c0,0.2-1.3,19.3,8.8,35.9
				c12.9,21,34.2,23.9,34.4,24L989.3,1048.2z"/>
			<path class="st19" d="M771,1048.2c1-0.1,26-3.4,40.7-27.4c11.4-18.6,10.3-38.8,10.2-39.6h-7.4c0,0.2,1.3,19.3-8.8,35.9
				c-12.9,21-34.2,23.9-34.4,24L771,1048.2z"/>
			<path class="st19" d="M886.1,1060.2c-5.6,0-15.2-0.9-22.3-6.2c-8.1-6.2-7.1-53-6.3-72.7l7,0.1c-1.2,28.9-0.1,63.2,3.6,67.1
				c5.7,4.3,14.1,4.8,18.6,4.7v-71.8h7.1v78.3l-3.1,0.4C890.5,1060,888.7,1060.2,886.1,1060.2z"/>
			<g>
				<rect x="868.3" y="951.7" class="st39" width="6.3" height="32.2"/>
				<rect x="873.6" y="981.3" class="st39" width="18.8" height="2.6"/>
				<rect x="870.1" y="966.1" class="st20" width="10.8" height="3"/>
				<rect x="873.6" y="951.7" class="st39" width="18.8" height="2.6"/>
			</g>
			<g>
				<path class="st29" d="M508.3,856.1l-11.2-4.1l-14.4,7.4l0.8,8.9l14.9,18.8l24.7-12.7L508.3,856.1z"/>
				<path class="st18" d="M631.6,1003.9l-94,48.2c-4.9,2.5-11,0.6-13.6-4.4l-70.7-137.9c-2.5-4.9-0.6-11,4.4-13.6l94-48.2
					c4.9-2.5,11-0.6,13.6,4.4l70.7,137.9C638.5,995.2,636.5,1001.3,631.6,1003.9z"/>
				
					<rect x="491.3" y="872.1" transform="matrix(0.8897 -0.4565 0.4565 0.8897 -373.6154 353.381)" class="st31" width="106.6" height="155.8"/>
				<polygon class="st1" points="523.5,874.2 498.2,887.1 491.9,895 496.4,903.7 537.5,882.6 533,873.9 				"/>
				<path class="st1" d="M507.6,841.4l-14.5,7.5l-2.7,12.6l7.8,25.7l24.8-12.7l-8.1-26.1L507.6,841.4z"/>
				<g>
					
						<rect x="526.4" y="897.3" transform="matrix(0.8897 -0.4565 0.4565 0.8897 -350.5382 347.7895)" class="st32" width="36.3" height="4.2"/>
					
						<rect x="535.5" y="915" transform="matrix(0.8897 -0.4565 0.4565 0.8897 -357.6151 353.8885)" class="st32" width="36.3" height="4.2"/>
					
						<rect x="544.1" y="931.7" transform="matrix(0.8897 -0.4565 0.4565 0.8897 -364.2913 359.6406)" class="st32" width="36.3" height="4.2"/>
					
						<rect x="553.1" y="949.3" transform="matrix(0.8897 -0.4565 0.4565 0.8897 -371.3312 365.7109)" class="st32" width="36.3" height="4.2"/>
					
						<rect x="561.1" y="964.8" transform="matrix(0.8897 -0.4565 0.4565 0.8897 -377.5431 371.0515)" class="st32" width="36.3" height="4.2"/>
					
						<rect x="570.5" y="983.2" transform="matrix(0.8897 -0.4565 0.4565 0.8897 -384.8726 377.3625)" class="st32" width="36.3" height="4.2"/>
				</g>
				<path class="st32" d="M527.5,935.4L496,951.5l-12.9-25.2l31.5-16.2L527.5,935.4z M497.9,945.8l24-12.3l-9.1-17.7l-24,12.3
					L497.9,945.8z"/>
				<path class="st32" d="M545.5,970.4L514,986.6l-12.9-25.2l31.5-16.2L545.5,970.4z M515.8,980.9l24-12.3l-9.1-17.7l-24,12.3
					L515.8,980.9z"/>
				<path class="st32" d="M562.9,1004.4l-31.5,16.2l-12.9-25.2l31.5-16.2L562.9,1004.4z M533.3,1014.8l24-12.3l-9.1-17.7l-24,12.3
					L533.3,1014.8z"/>
				<polygon class="st3" points="509.1,936.9 495.1,932.5 496.4,928.5 504.7,931.1 504,906.1 508.2,905.9 				"/>
				<polygon class="st3" points="527.1,972 513.1,967.6 514.4,963.6 522.7,966.2 522,941.1 526.2,941 				"/>
				<polygon class="st3" points="544.6,1006.1 530.6,1001.7 531.9,997.7 540.2,1000.3 539.5,975.2 543.7,975.1 				"/>
			</g>
			<path class="st12" d="M570.6,924.8c0,0,3.9,4.2,13.8,2.7c10.3-1.6,11.2-5.5,11.2-5.5s7.4,6.5,15.6,6.8c8.1,0.2,14.2-7.6,14.2-7.6
				l-7.7-11.8l-32.7,4.4L570.6,924.8z"/>
			<path class="st44" d="M1143.4,757.5l10.4,170.9l-92.9,106.7c0,0-4.4,5.3,16.9,28.4c21.3,23.1,38.1,10.6,38.1,10.6l62.7-122.1
				l189.2-81.9c0,0-87.4-39-135.7-47C1164.1,811.9,1143.4,757.5,1143.4,757.5z"/>
			<path class="st12" d="M1187.6,924.8c0,0-3.9,4.2-13.8,2.7c-10.3-1.6-11.2-5.5-11.2-5.5s-7.4,6.5-15.6,6.8
				c-8.1,0.2-14.2-7.6-14.2-7.6l7.7-11.8l32.7,4.4L1187.6,924.8z"/>
			<g>
				<path class="st45" d="M1333,783.5c0,0,2.3,4.3,5.5,3.7c3.3-0.6,2.4-6.9,2.4-6.9l-8.9-5.9c0,0-5.1-2.8-5.5,1.2
					C1326.2,779.5,1333,783.5,1333,783.5z"/>
				<path class="st46" d="M1340.9,780.3l-8.9-5.9c0,0-4.7-7.7,2.7-15.2c7.3-7.5,20.6-8.8,20.6-8.8s5.5,2,2.1,12.2
					C1354,772.7,1340.9,780.3,1340.9,780.3z"/>
				<path class="st45" d="M1329.8,777.7c0,0-6.6-3.1-3.8-9.7c2.8-6.6,13.7-12.6,13.7-12.6l-3.2,12.4L1329.8,777.7z"/>
				<path class="st45" d="M1306.7,791.2c3.3,0.9,15.4-7.7,19.4-10.4c4-2.7,5.5-11.1,5.5-11.1l-3.9,5.9c0,0-3.5,1.4-6.9,4.4
					C1317.3,783,1306.7,791.2,1306.7,791.2z"/>
			</g>
			<g>
				<path class="st45" d="M1239.7,730.6c0,0,4.9,0,5.9-3.1s-5-5.3-5-5.3l-9.4,5c0,0-4.8,3.2-1.5,5.4
					C1232.9,734.8,1239.7,730.6,1239.7,730.6z"/>
				<path class="st46" d="M1240.5,722.1l-9.4,5c0,0-9,0.5-12.2-9.5c-3.2-10,1.8-22.3,1.8-22.3s4.4-3.9,11.7,3.8
					C1239.9,707,1240.5,722.1,1240.5,722.1z"/>
				<path class="st45" d="M1233.1,730.8c0,0-5.8,4.4-10.4-1.2c-4.6-5.6-4.7-18-4.7-18l9.5,8.6L1233.1,730.8z"/>
				<path class="st45" d="M1234.1,757.5c2.3-2.4,0.4-17.2-0.1-22c-0.5-4.8-7.2-10-7.2-10l3.3,6.2c0,0-0.4,3.7,0.7,8.2
					C1231.9,744.3,1234.1,757.5,1234.1,757.5z"/>
			</g>
			<path class="st40" d="M1159.4,760.6c-12.4-4.7-24.6-6.2-28.2,8.2c-3.6,14.3,20.4,10,20.4,10s-14.7-3.9-22.6,4.3
				c-8,8.2-9,14.9-9,14.9s7-2.4,12-1.6c5,0.8,9.7-2.5,9.7-2.5s-15.2-3.8-12.4,5.7c2.8,9.5,21.9,3.2,21.9,3.2s-15.9,1.6-8.5,6.8
				s51,0.2,51,0.2l5.1-19.5C1198.7,790.1,1171.7,765.3,1159.4,760.6z"/>
			<path class="st40" d="M1321.6,878.1c8.7,10,18.8,17,28.8,6c9.9-11-13.3-18.3-13.3-18.3s11.1,10.3,22,6.8c10.9-3.5,14.9-9,14.9-9
				s-7.3-1.1-11.4-4.1c-4-3-9.7-2.4-9.7-2.4s11.7,10.5,13.6,0.8c1.9-9.7-17.8-13.1-17.8-13.1s14.9,6,10.7-2.1s-45-24-45-24
				l-13.6,14.9C1300.6,833.6,1312.8,868.1,1321.6,878.1z"/>
			<g>
				<path class="st47" d="M1149.4,759.5c-5.5-16,7.8-41,28.7-48.1s42.9,3.4,48.1,26.2c3.7,16.5-0.1,41.8-21,48.9
					C1184.3,793.6,1154.8,775.5,1149.4,759.5z"/>
				<path class="st48" d="M1204.8,760.1c0,0,0.1,4.8-16.3,5.7c-16.4,1-20.6-8-20.6-8l16.2,2.3c0,0-5.7-4.7,3.3-6
					c9.1-1.3,6.7,6.2,6.7,6.2L1204.8,760.1z"/>
				<path class="st46" d="M1213.5,756.5c0,0,4.4-10.5-14.6-13.6c-19-3.1-31.5,6.5-31.5,6.5s15.8-14.4,34.1-11.6
					C1221.6,740.8,1213.5,756.5,1213.5,756.5z"/>
				<path class="st46" d="M1206.7,732c0,0-5.8-12.7-27.9-4.1c-20.3,8-23.2,29.4-23.2,29.4s2.5-28.7,22.4-35.6
					C1204,712.7,1206.7,732,1206.7,732z"/>
				<path class="st46" d="M1175.3,772.4c0,0,3.6,4.8,20.1,2.6c13.2-1.8,15.4-11.2,15.4-11.2s-4.5,14.6-15.5,15.6
					C1184.2,780.3,1175.3,772.4,1175.3,772.4z"/>
			</g>
			<g>
				<path class="st47" d="M1232.1,761.8c1.3-18,24.8-37,48.2-35.3c23.4,1.7,40.7,21.2,36.2,45.8c-3.2,17.7-17.6,41-41,39.2
					C1252.2,809.9,1230.8,779.8,1232.1,761.8z"/>
				<path class="st48" d="M1286.3,785.5c0,0-1.9,4.7-18.4-1.2s-16.9-16.5-16.9-16.5l14.9,9c0,0-3.7-7,5.8-4.5c9.4,2.5,4,8.9,4,8.9
					L1286.3,785.5z"/>
				<path class="st46" d="M1296.4,785.6c0,0,8.8-8.5-8.6-19.4c-17.4-10.9-33.6-6.8-33.6-6.8s21.5-7.6,38.3,2.8
					C1310.8,773.6,1296.4,785.6,1296.4,785.6z"/>
				<path class="st46" d="M1299.9,758.8c0,0-0.4-14.9-25.7-15.7c-23.3-0.7-35.1,19.1-35.1,19.1s14.5-27.1,36.9-25.6
					C1305.3,738.6,1299.9,758.8,1299.9,758.8z"/>
				<path class="st46" d="M1252.2,785.3c0,0,1.5,6.3,18.6,11c13.7,3.7,19.8-4.6,19.8-4.6s-10.5,12.5-21.8,8.8
					C1257.6,796.7,1252.2,785.3,1252.2,785.3z"/>
			</g>
			<g>
				<path class="st47" d="M1308.3,792.9c8.3-11.6,32-14.8,47.1-3.9c15.1,10.8,18.8,31.1,5.6,45.9c-9.5,10.7-28.8,20.4-43.9,9.6
					C1302,833.7,1300,804.5,1308.3,792.9z"/>
				<path class="st48" d="M1335.1,831.3c0,0-3.2,2.4-11.9-8.4c-8.7-10.8-4.6-18.1-4.6-18.1l6.4,12.2c0,0,0.4-6.2,5.7-0.6
					s-1,7.6-1,7.6L1335.1,831.3z"/>
				<path class="st46" d="M1341.9,835.6c0,0,9.4-2.1,2.2-16.7c-7.2-14.6-19.9-18.4-19.9-18.4s17.6,3.8,24.7,17.7
					C1356.6,833.4,1341.9,835.6,1341.9,835.6z"/>
				<path class="st46" d="M1355.3,818.8c0,0,5.9-10.3-10.9-21.2c-15.5-10.1-31.6-1.5-31.6-1.5s21-12.3,35.5-2.1
					C1367.3,807.4,1355.3,818.8,1355.3,818.8z"/>
				<path class="st46" d="M1312.2,817.1c0,0-1.6,4.8,8.1,15.1c7.7,8.2,15.3,5,15.3,5s-12.3,4.1-18.4-3
					C1311.1,827,1312.2,817.1,1312.2,817.1z"/>
			</g>
			<g>
				<path class="st47" d="M1301,823.1c9.2,11,6.3,34.7-8,46.6s-34.8,10.4-45.8-6.1c-7.9-11.8-12.6-33,1.7-44.9
					C1263.1,806.8,1291.9,812.2,1301,823.1z"/>
				<path class="st48" d="M1257.2,839.4c0,0-1.5-3.7,11.1-9.4c12.7-5.7,18.7,0.1,18.7,0.1l-13.4,3.1c0,0,5.9,2-0.8,5.7
					c-6.8,3.7-7.1-2.9-7.1-2.9L1257.2,839.4z"/>
				<path class="st46" d="M1251.4,845c0,0-0.3,9.6,15.6,6.3c15.9-3.4,22.8-14.7,22.8-14.7s-8.1,16.1-23.4,19.5
					C1249.7,859.7,1251.4,845,1251.4,845z"/>
				<path class="st46" d="M1264.2,862.2c0,0,8.5,8.3,23.3-5.2c13.6-12.4,9.4-30.2,9.4-30.2s6.7,23.4-6.9,34.9
					C1272.2,876.6,1264.2,862.2,1264.2,862.2z"/>
				<path class="st46" d="M1276.7,820.8c0,0-4.3-2.7-16.6,4c-9.8,5.4-8.7,13.5-8.7,13.5s-0.9-12.9,7.5-17
					C1267.3,817.3,1276.7,820.8,1276.7,820.8z"/>
			</g>
			<g>
				<path class="st47" d="M1246.4,835.6c-5.6,13.1-28.1,21.4-45.2,14.1c-17.1-7.3-25.1-26.3-15.4-43.6c6.9-12.5,23.6-26.2,40.7-18.9
					C1243.7,794.5,1252,822.5,1246.4,835.6z"/>
				<path class="st48" d="M1211.9,804c0,0,2.6-3.1,13.5,5.6c10.9,8.7,8.4,16.7,8.4,16.7l-8.9-10.5c0,0,1,6.2-5.5,1.9
					c-6.4-4.3-0.7-7.7-0.7-7.7L1211.9,804z"/>
				<path class="st46" d="M1204.4,801.3c0,0-8.7,4.1,1.5,16.8c10.2,12.6,23.5,13.7,23.5,13.7s-18,0.2-28-11.9
					C1190.4,806.6,1204.4,801.3,1204.4,801.3z"/>
				<path class="st46" d="M1194.9,820.6c0,0-3.5,11.3,15.3,18.3c17.3,6.5,31.2-5.4,31.2-5.4s-17.8,16.6-34.2,9.8
					C1185.7,834.3,1194.9,820.6,1194.9,820.6z"/>
				<path class="st46" d="M1237.3,812.9c0,0,0.5-5.1-11.2-13c-9.3-6.3-16-1.6-16-1.6s11.1-6.7,18.6-1.1
					C1236.2,802.9,1237.3,812.9,1237.3,812.9z"/>
			</g>
		</g>
	</g>
</g>
</svg>
