<?xml version="1.0" encoding="utf-8"?>
<!-- Generator: Adobe Illustrator 25.2.1, SVG Export Plug-In . SVG Version: 6.00 Build 0)  -->
<svg version="1.1" id="Layer_1" xmlns="http://www.w3.org/2000/svg" xmlns:xlink="http://www.w3.org/1999/xlink" x="0px" y="0px"
	 viewBox="0 0 1800 1800" style="enable-background:new 0 0 1800 1800;" xml:space="preserve">
<style type="text/css">
	.st0{fill:#F0F0F0;}
	.st1{fill:#D9D9D9;}
	.st2{fill:#B3B3B3;}
	.st3{fill:#AC1E23;}
	.st4{fill:#681EAC;}
	.st5{fill:#231F20;}
	.st6{fill:#861EE3;}
	.st7{fill:#FB506D;}
	.st8{fill:#FFC700;}
	.st9{fill:#959A95;}
	.st10{fill:#FFEA5A;}
	.st11{fill:#155F84;}
	.st12{fill:#664624;}
	.st13{fill:#815932;}
	.st14{fill:#1E7DAC;}
	.st15{fill:#18658C;}
	.st16{fill:#FFFFFF;}
	.st17{fill:#0F5070;}
	.st18{fill:#132E42;}
	.st19{fill:#0A4F6F;}
	.st20{fill:#9D764B;}
	.st21{fill:#CF9E5F;}
	.st22{fill:#C19A9A;}
	.st23{fill:#CEA7A7;}
	.st24{fill:#051132;}
	.st25{fill:#032142;}
	.st26{fill:#BF9191;}
	.st27{fill:#CEB0BF;}
	.st28{fill:#001932;}
	.st29{fill:#BDBDBD;}
	.st30{fill:#225378;}
	.st31{fill:#E7F6FD;}
	.st32{fill:#A5DFF9;}
	.st33{fill:#FF5956;}
	.st34{fill:#8C181D;}
	.st35{fill:#9D744B;}
	.st36{display:none;}
	.st37{display:inline;fill:#1E7DAC;}
	.st38{display:inline;fill:#18658C;}
	.st39{fill:#D6B792;}
	.st40{fill:#527D5C;}
	.st41{display:inline;fill:#FFFFFF;}
	.st42{display:inline;fill:#BDBDBD;}
	.st43{display:inline;fill:#D9D9D9;}
	.st44{fill:#5BB268;}
	.st45{fill:#94AC43;}
	.st46{fill:#EB7690;}
	.st47{fill:#A766B1;}
	.st48{fill:#FFE616;}
</style>
<g>
	<ellipse class="st0" cx="1027.65" cy="1427.51" rx="207.23" ry="15.49"/>
	<g>
		<ellipse class="st0" cx="1058.3" cy="763" rx="201.4" ry="16.99"/>
		<g>
			<g>
				<rect x="881.88" y="529.89" class="st1" width="105.04" height="78.86"/>
				<rect x="881.88" y="529.89" class="st2" width="105.04" height="20"/>
				<rect x="931.6" y="529.89" class="st3" width="6.39" height="78.87"/>
				<rect x="881.71" y="562.76" class="st3" width="105.26" height="6.25"/>
				<polygon class="st3" points="935,530.18 904.39,508.6 895.82,520.73 				"/>
				<polygon class="st3" points="966.11,513.98 935,530.18 973.34,524.8 				"/>
				<polygon class="st3" points="935,530.18 950.84,513.32 939.6,513.32 				"/>
			</g>
			<g>
				<g>
					<polygon class="st4" points="947.43,636.85 890.56,614.07 893.45,607.17 950.32,629.96 					"/>
					<rect x="890.25" y="607.11" class="st4" width="77.23" height="6.92"/>
				</g>
				<rect x="1040.05" y="689.54" class="st5" width="82.37" height="17.19"/>
				<g>
					<path class="st6" d="M924.53,659.91h-22.72c-4.41,0-8.02-3.53-8.02-7.85v-1.78c0-4.32,3.61-7.85,8.02-7.85h22.72
						c4.41,0,8.02,3.53,8.02,7.85v1.78C932.55,656.38,928.94,659.91,924.53,659.91z"/>
					<path class="st4" d="M924.37,641.09h-14.18l-7.39,20.16h21.56c5.67,0,10.3-4.54,10.3-10.08
						C934.67,645.62,930.03,641.09,924.37,641.09z"/>
				</g>
				<g>
					<path class="st7" d="M920.36,672.79h-19.93c-2.99,0-5.43-2.39-5.43-5.31v-1.21c0-2.92,2.44-5.31,5.43-5.31h19.93
						c2.99,0,5.43,2.39,5.43,5.31v1.21C925.79,670.4,923.34,672.79,920.36,672.79z"/>
					<path class="st4" d="M919.28,660.05h-11.26l-5.87,13.64h17.12c4.5,0,8.18-3.07,8.18-6.82
						C927.47,663.12,923.78,660.05,919.28,660.05z"/>
				</g>
				<path class="st8" d="M1156.81,577.78l-0.54-1.38c-2.96-7.53-11.67-11.33-19.37-8.43l-1.44,0.54l10.97,28.89l1.76-0.66
					C1155.89,593.84,1159.77,585.31,1156.81,577.78z"/>
				<path class="st4" d="M959.8,630.28c0,0-39.37,5.93-46.63,21.63c-7.27,15.7,3.33,31.41,3.33,31.41s120.22,31.11,130.21,27.85
					c9.99-3.26-2.73-20.74,2.12-29.93c4.85-9.19,12.42-15.11,15.14-25.48c2.73-10.37-2.41-29.4-2.41-29.4l-101.46,2.73L959.8,630.28
					z"/>
				<g>
					<ellipse class="st5" cx="966.52" cy="723.46" rx="43.76" ry="42.82"/>
					<g>
						<ellipse class="st9" cx="966.52" cy="723.46" rx="24.04" ry="23.52"/>
					</g>
					<g>
						<ellipse class="st10" cx="966.52" cy="723.46" rx="10.3" ry="10.08"/>
					</g>
				</g>
				<g>
					<ellipse class="st5" cx="1183.44" cy="723.46" rx="43.76" ry="42.82"/>
					<g>
						<ellipse class="st9" cx="1183.44" cy="723.46" rx="24.04" ry="23.52"/>
					</g>
					<g>
						<ellipse class="st10" cx="1183.44" cy="723.46" rx="10.3" ry="10.08"/>
					</g>
				</g>
				<rect x="1020.07" y="703.17" class="st4" width="113.26" height="10.37"/>
				<path class="st6" d="M1033.14,719.28c0.02-0.64,0.05-1.27,0.05-1.91c0-36.05-29.87-65.28-66.72-65.28
					c-36.85,0-66.72,29.23-66.72,65.28c0,0.64,0.03,1.28,0.05,1.91H1033.14z"/>
				<path class="st4" d="M1105.98,556.74l15.14-5.33c0,0,33.1,31.46,46.72,65.54c13.63,34.07,9.69,53.04,1.82,70.22
					c-8.9,19.43-19.38,18.37-19.38,18.37l-40.58-0.59c0,0,25.74-30.22,26.65-67.56C1137.31,597.83,1105.98,556.74,1105.98,556.74z"
					/>
				<path class="st6" d="M1234.88,701.21c-0.53-1.52-1.12-3.04-1.81-4.54c-12.31-27.11-44.75-39.31-72.46-27.26
					c-21.65,9.42-34,30.86-32.48,52.72L1234.88,701.21z"/>
				<g>
					<path class="st5" d="M1109.4,531.28h-12.46c-5.23,0-9.52-4.19-9.52-9.31v-2.12c0-5.12,4.28-9.31,9.52-9.31h12.46
						c5.23,0,9.52,4.19,9.52,9.31v2.12C1118.92,527.09,1114.63,531.28,1109.4,531.28z"/>
					<path class="st5" d="M1119.29,558.37l-4.37-2.04c0.02-0.05,2.68-5.83,1.3-15.85c-1.39-10.1-6.72-16.86-6.77-16.93l3.81-2.93
						c0.25,0.31,6.19,7.79,7.77,19.22C1122.61,551.38,1119.42,558.09,1119.29,558.37z"/>
				</g>
				<path class="st5" d="M940.12,606.94v5.66c0,11.27,5.87,20.49,13.05,20.49h104.71c7.18,0,13.05-9.22,13.05-20.49v-5.66H940.12z"
					/>
			</g>
			<g>
				<polygon class="st11" points="1043.31,483.91 1045.17,475.67 1024.02,464.35 1022.15,470.83 				"/>
				<g>
					<path class="st12" d="M1032.2,509.33c20.23,4.5,9.31-18.79,9.39-33.52l4.07-29.83l-8.11-3.25c0,0-4.91,7.85-11.3,12.34
						c-1.75,6.97-3.7,14.51-4.41,16.41C1022.24,475.39,1011.96,504.83,1032.2,509.33z"/>
					<path class="st13" d="M1061.92,423.21c2.45,8.44-2.35,13.91-0.2,17.7c2.15,3.79,3.32,3.58,3.28,5.03
						c-0.03,1.45-2.74,1.62-3.13,3.55c-0.47,2.34-1.66,5.75-2.08,8.2c-0.51,3.03-0.04,5.05-2.67,6.04
						c-4.87,1.83-12.15-2.04-16.28-4.22c-5.87-3.1-10.72-11.13-10.65-16.67c-4.22-1.74-18.03-12.8-8.48-24.37
						C1031.25,406.91,1057.33,407.37,1061.92,423.21z"/>
					<path d="M1061.92,423.21c-1.55-1.27-14.56-3.64-17.54,2.95c-2.49,5.51-1.12,8.29-8.35,10.52c-3.59-5.43-8.29,0.68-5.21,3.2
						c0.67,0.55,0.03,2.36,0.03,2.36l1.41,7.89l-5.94,4.94c0,0-13.04-6.14-12.03-21.79c1.03-15.93,9.61-24.57,19.77-24.49
						C1052.27,408.93,1060.08,416.27,1061.92,423.21z"/>
					<g>
						<path class="st14" d="M1062.07,422.73c0.72-2.68-0.83-15.77-5.68-19.68c-4.87-3.92-16.18-6.61-20.31-6.21
							c-4.13,0.4-14.93,5.34-18.93,10.28c-3.82,4.72-2.02,16.46-1.7,19.78C1033.8,428.22,1045.43,427.1,1062.07,422.73z"/>
						<path class="st15" d="M1041.44,426.75c0,0,9.77,1.77,26.7,2.78c12.73,0.76,15.56-7.66,15.56-7.66l-21.58-4.07
							c0,0-1.05,1.62-6.62,4.36C1049.93,424.9,1041.44,426.75,1041.44,426.75z"/>
					</g>
					<path d="M1059.5,439.65c-0.26,1.14-1.41,1.86-2.57,1.61c-1.16-0.25-1.9-1.38-1.65-2.51c0.25-1.14,1.41-1.86,2.57-1.61
						C1059.02,437.39,1059.76,438.51,1059.5,439.65z"/>
					<path class="st16" d="M1060,456.68c0.45-1.61,0.99-3.36,1.35-5.03l-6.45-0.65C1054.9,451,1056.92,455.02,1060,456.68z"/>
					<path class="st13" d="M1035.99,439.81c-0.95,3.21-3.36,5.35-5.38,4.77c-2.02-0.57-2.88-3.64-1.93-6.85
						c0.95-3.21,3.36-5.35,5.38-4.77C1036.08,433.54,1036.95,436.6,1035.99,439.81z"/>
					<path d="M1061.56,435.49l-8.62-0.95l0.07-0.46c0.19-1.19,1.58-1.96,3.11-1.73l6.01,0.51L1061.56,435.49z"/>
					<path class="st14" d="M1036.81,397.08l-3.74,0.74c-0.63,0.12-1.26-0.28-1.38-0.9l0,0c-0.13-0.62,0.29-1.23,0.92-1.35l3.74-0.74
						c0.63-0.12,1.26,0.28,1.38,0.9l0,0C1037.86,396.35,1037.45,396.96,1036.81,397.08z"/>
					<path d="M1019.95,431.43c-0.33,2.33-2.53,3.97-4.92,3.64c-2.39-0.32-4.05-2.48-3.72-4.81c0.33-2.33,2.53-3.97,4.92-3.64
						C1018.62,426.94,1020.28,429.09,1019.95,431.43z"/>
					<path d="M1019.42,438.74c-0.33,2.33-2.53,3.97-4.92,3.64c-2.39-0.32-4.05-2.48-3.72-4.81c0.33-2.33,2.53-3.97,4.92-3.64
						C1018.08,434.25,1019.75,436.41,1019.42,438.74z"/>
					<path d="M1022.2,445.29c-0.33,2.33-2.53,3.97-4.92,3.64c-2.39-0.32-4.05-2.48-3.72-4.81c0.33-2.34,2.53-3.97,4.92-3.64
						C1020.86,440.8,1022.53,442.96,1022.2,445.29z"/>
					<path d="M1026.87,450.63c-0.33,2.33-2.53,3.97-4.92,3.64c-2.39-0.32-4.05-2.48-3.72-4.81c0.33-2.33,2.53-3.97,4.92-3.64
						C1025.53,446.14,1027.2,448.29,1026.87,450.63z"/>
					<path d="M1032.76,452.63c-0.33,2.34-2.53,3.97-4.92,3.64c-2.39-0.32-4.05-2.48-3.72-4.81c0.33-2.33,2.53-3.97,4.92-3.64
						C1031.42,448.14,1033.09,450.3,1032.76,452.63z"/>
				</g>
				<path class="st14" d="M1045.06,488.76l-5.34-8.12l-19.38-10.95c0,0-5.66,6.76-7.22,20.04c-1.03,8.73-16.56,75.12-16.56,75.12
					l39.17,4.48c0,0,9.09-33.23,12.16-46.83C1049.47,515.51,1045.06,488.76,1045.06,488.76z"/>
				<polygon class="st11" points="1039.64,482.77 1041.5,474.54 1020.35,463.22 1018.48,469.7 				"/>
				<polygon class="st17" points="1045.06,488.76 1041.39,475.01 1039.97,481.32 				"/>
				<path class="st18" d="M992.88,570.71c0,0-8.86,18.31-2.99,28.47c8.42,14.55,75.41,15.34,75.41,15.34l2.18,71.66l20.3-0.71
					l7.98-93.66l-61.14-14.86L992.88,570.71z"/>
				<path class="st12" d="M1036.09,569.1l-39.73-4.32c0,0-1.25,1.95-2.12,3.46c-0.87,1.51-2.29,4.17-2.29,4.17l42.66,4.63
					L1036.09,569.1z"/>
				<polygon class="st18" points="1011.3,574.51 1008.36,574.19 1009.27,566.19 1012.21,566.5 				"/>
				<path class="st13" d="M1091.59,562.99l5.71-6.39l-39.43-20.49c0,0-22.97-53.97-25.8-54.35c0,0-7.04-1.19-10.15,4.85
					c-3.11,6.04,24.53,60.67,24.53,60.67L1091.59,562.99z"/>
				<g>
					<path class="st11" d="M1026.59,512.54c2.1-0.31,6.73-1.34,9.48-2.39c4.4-1.69,8-4.77,9.17-6.51l-6.74-13.99
						c-3.99-8.72-8.73-9.88-13.25-8.33c-4.52,1.55-6.48,3.56-5.44,10.24C1020.85,498.23,1026.59,512.54,1026.59,512.54z"/>
					<path class="st16" d="M1034.08,505.33c-2.57,0.94-6.59,1.89-9.17,2.38c0.96,2.84,1.69,4.83,1.69,4.83
						c2.1-0.31,6.73-1.34,9.48-2.39c4.4-1.69,8-4.77,9.17-6.51l-2.05-4.25C1041.73,501,1038.1,503.85,1034.08,505.33z"/>
				</g>
				<path class="st19" d="M1031.42,576.75l-2.6-0.29c1.11,1.02,2.23,2.21,3.17,3.56c3.55,5.12,2.23,8.2,1.95,9.04l-17.93-14.03
					l-2.72-0.3l21.93,17.87c0,0,0.49-0.63,0.82-1.29c0.33-0.66,2.01-5.49-2.38-11.81C1032.97,578.5,1032.2,577.58,1031.42,576.75z"
					/>
				<g>
					<path class="st12" d="M1065.62,698.95v-11.54h18.85c0,0,14.7-1.13,16.82,2.25c1.22,1.94,0.76,9.29,0.76,9.29H1065.62z"/>
					<rect x="1065.57" y="695.97" class="st20" width="36.58" height="2.93"/>
				</g>
				<polygon class="st19" points="1064.97,674.39 1089.48,674.39 1090.22,687.44 1065.57,687.44 				"/>
				<g>
					<path class="st13" d="M1091.49,562.99c0,0,5.88,5.55,9.01,1.86c4.17-4.92,7.55-8.48,10.4-5.19c6.53,7.52,7.07,4.32,7.07,4.32
						s-1.54-10-10.24-10.93c-6.22-0.67-12.94,3.88-12.94,3.88L1091.49,562.99z"/>
				</g>
			</g>
			<ellipse class="st5" cx="1108.72" cy="565.92" rx="7.89" ry="7.72"/>
		</g>
	</g>
	<g>
		<polygon class="st11" points="1118.43,1120.89 1117.49,1112.22 1141.86,1103.09 1143.05,1109.96 		"/>
		<polygon class="st21" points="828.28,1355.86 934.81,1388.6 960.56,1316.66 854.03,1283.93 		"/>
		<polygon class="st1" points="836.77,1278.83 957.39,1315.9 973.01,1272.28 852.38,1235.21 		"/>
		<polygon class="st20" points="879.46,1243.5 973.77,1272.48 989.39,1228.86 895.08,1199.88 		"/>
		<g>
			<path class="st22" d="M1127.27,1150.12c-22.54,1.85-7.24-20.49-5.12-35.57l0.08-31.08l9.26-2.22c0,0,4.12,8.7,10.35,14.16
				c0.84,7.37,1.82,15.35,2.31,17.4C1143.12,1116.74,1149.81,1148.27,1127.27,1150.12z"/>
			<path class="st23" d="M1108.08,1057.95c-3.91,8.3,0.45,14.55-2.44,18.14s-4.12,3.22-4.3,4.7c-0.18,1.49,2.72,2.04,2.85,4.06
				c0.16,2.46,0.93,6.11,1.01,8.67c0.1,3.17-0.71,5.17,1.98,6.55c4.98,2.54,13.44-0.44,18.23-2.11c6.81-2.38,13.26-9.93,14.01-15.61
				c4.82-1.2,21.4-10.64,12.83-23.78C1143.67,1045.44,1115.42,1042.36,1108.08,1057.95z"/>
			<path d="M1108.08,1057.95c1.87-1.09,16.28-1.74,18.51,5.41c1.86,5.97-0.03,8.63,7.45,11.9c4.69-5.07,8.85,1.82,5.15,3.98
				c-0.81,0.47-0.38,2.42-0.38,2.42l-2.71,7.88l5.68,5.86c0,0,15.01-4.51,16.27-20.66c1.28-16.44-6.69-26.45-17.69-27.75
				C1120.65,1044.65,1111.11,1051.1,1108.08,1057.95z"/>
			<g>
				<path class="st14" d="M1107.99,1057.44c-0.37-2.84,3.26-16.03,9.1-19.36c5.85-3.35,18.48-4.56,22.89-3.59
					c4.4,0.97,15.33,7.5,18.91,13.1c3.42,5.35-0.29,17.12-1.13,20.47C1137.72,1066.9,1125.31,1064.17,1107.99,1057.44z"/>
				<path class="st15" d="M1129.68,1064.36c0,0-10.82,0.48-29.28-0.79c-13.87-0.95-15.67-9.95-15.67-9.95l23.93-1.23
					c0,0,0.89,1.8,6.5,5.36C1120.78,1061.31,1129.68,1064.36,1129.68,1064.36z"/>
			</g>
			<path d="M1108.22,1075.1c0.1,1.2,1.24,2.1,2.54,2c1.3-0.1,2.26-1.15,2.16-2.35c-0.1-1.2-1.24-2.1-2.54-2
				C1109.08,1072.85,1108.12,1073.9,1108.22,1075.1z"/>
			<path class="st16" d="M1105.13,1092.46c-0.24-1.71-0.57-3.58-0.7-5.33l7.07,0.21C1111.5,1087.34,1108.7,1091.18,1105.13,1092.46z
				"/>
			<path class="st23" d="M1133.6,1078.47c0.55,3.41,2.83,5.93,5.09,5.62c2.27-0.31,3.66-3.33,3.11-6.74
				c-0.55-3.41-2.83-5.93-5.09-5.62C1134.45,1072.03,1133.06,1075.05,1133.6,1078.47z"/>
			<path d="M1106.62,1070.56l9.46,0.2l-0.01-0.48c-0.03-1.24-1.41-2.22-3.1-2.19l-6.57-0.3L1106.62,1070.56z"/>
			<path class="st14" d="M1139.13,1034.63l3.93,1.26c0.67,0.21,1.4-0.12,1.63-0.73l0,0c0.23-0.62-0.12-1.3-0.79-1.51l-3.93-1.26
				c-0.67-0.21-1.4,0.12-1.63,0.73l0,0C1138.11,1033.74,1138.47,1034.42,1139.13,1034.63z"/>
			<path d="M1152.2,1072.07c0.01,2.43,2.14,4.4,4.77,4.4c2.63-0.01,4.75-1.98,4.75-4.42c-0.01-2.43-2.14-4.4-4.77-4.4
				C1154.32,1067.66,1152.19,1069.63,1152.2,1072.07z"/>
			<path d="M1151.67,1079.63c0.01,2.43,2.14,4.4,4.77,4.4c2.63-0.01,4.75-1.98,4.75-4.42c-0.01-2.43-2.14-4.4-4.77-4.4
				C1153.79,1075.21,1151.67,1077.19,1151.67,1079.63z"/>
			<path d="M1147.69,1085.95c0.01,2.43,2.14,4.4,4.77,4.4c2.63-0.01,4.75-1.98,4.75-4.42c-0.01-2.43-2.14-4.4-4.77-4.4
				C1149.81,1081.54,1147.68,1083.52,1147.69,1085.95z"/>
			<path d="M1141.84,1090.78c0.01,2.43,2.14,4.4,4.77,4.4c2.63-0.01,4.75-1.98,4.75-4.42c-0.01-2.43-2.14-4.4-4.77-4.4
				S1141.84,1088.34,1141.84,1090.78z"/>
			<path d="M1135.17,1092.03c0.01,2.43,2.14,4.4,4.77,4.4c2.63-0.01,4.75-1.98,4.75-4.42c-0.01-2.43-2.14-4.4-4.77-4.4
				C1137.29,1087.62,1135.17,1089.59,1135.17,1092.03z"/>
		</g>
		<path class="st14" d="M1115.92,1125.66l6.83-7.71l22.41-8.96c0,0,5.25,7.6,5.23,21.4c-0.02,9.08-4.62,78.55-4.62,78.55h-42.78
			c0,0-0.39-41.06-0.23-50.13C1102.89,1151.43,1115.92,1125.66,1115.92,1125.66z"/>
		<polygon class="st11" points="1122.56,1120.16 1121.61,1111.49 1145.99,1102.36 1147.17,1109.23 		"/>
		<polygon class="st17" points="1115.92,1125.66 1121.67,1111.99 1122.39,1118.62 		"/>
		<polygon class="st24" points="1103.68,1217.26 1062.52,1310.49 1048.15,1393.61 1072.87,1394.16 1094.56,1315.99 1153.1,1228.82 
					"/>
		<path class="st25" d="M1145.99,1208.94c0,0,7.69,13.95,7.69,26.04c0,4.94,0.93,73.17,0.93,73.17l42.99,71.27l-20.5,10.03
			l-56.07-75.81l-18.03-104.7H1145.99z"/>
		<path class="st22" d="M1103.06,1208.94h42.93c0,0,1.1,2.14,1.85,3.79c0.75,1.65,1.94,4.53,1.94,4.53h-46.1L1103.06,1208.94z"/>
		<rect x="1128.86" y="1208.94" class="st25" width="3.18" height="8.32"/>
		<g>
			<path class="st22" d="M1207.47,1394.26l-6.99-8.56c0,0-14.9,9.41-17.26,11.77c-2.4,3.61-12.52,4.05-13.53,8.04
				c-0.58,2.28,2.46,9.35,2.46,9.35s14.43-1.4,18.85-7.67C1195.42,1400.92,1207.47,1394.26,1207.47,1394.26z"/>
			<path class="st20" d="M1205.99,1392.4c0,0-8.61,5.66-15.42,13.57c-6.8,7.91-19.57,5.99-19.57,5.99l1.02,2.87
				c0,0,12.69,2.09,19.57-5.99c6.87-8.08,15.88-14.59,15.88-14.59L1205.99,1392.4z"/>
		</g>
		<g>
			<path class="st22" d="M1066.76,1415.18l3.01-10.36c0,0-17.15-5.14-20.62-5.42c-4.55,0.46-11.13-6.68-15.15-4.98
				c-2.31,0.97-6.46,7.53-6.46,7.53s10.04,9.71,18.1,9.1C1053.69,1410.45,1066.76,1415.18,1066.76,1415.18z"/>
			<path class="st20" d="M1067.43,1412.96c0,0-10.11-2.84-21.03-2.96c-10.92-0.13-17.11-10.65-17.11-10.65l-1.82,2.51
				c0,0,6,10.57,17.11,10.65c11.11,0.08,22.17,2.68,22.17,2.68L1067.43,1412.96z"/>
		</g>
		<polygon class="st19" points="1073.86,1391.54 1048.18,1385.54 1046.48,1399.02 1069.71,1405.03 		"/>
		<path class="st19" d="M1106.71,1217.26h2.48c0,0.06-0.44,5.98,2.96,11.12c3.86,5.84,10.19,7.16,11.5,7.38v-18.51h2.34v20.75
			c0,0-1.21,0.08-2.34,0c-1.13-0.08-8.76-1.27-13.53-8.48C1106.32,1223.77,1106.69,1217.52,1106.71,1217.26z"/>
		<g>
			<polygon points="929.27,1394.29 937.13,1396.63 1011.63,1166.69 1003.99,1164.57 			"/>
			<polygon points="866.86,1367.62 864.57,1374.69 937.21,1396.7 939.31,1389.66 			"/>
			<polygon points="937.09,1396.7 996.19,1390.52 1034.59,1268.01 1003.44,1211.61 1069.83,1203.72 1068.93,1197.18 992.49,1206.26 
				1026.96,1268.68 990.73,1384.31 936.46,1390.01 			"/>
			<ellipse cx="990.16" cy="1392.79" rx="24.01" ry="22.25"/>
		</g>
		<g>
			<path class="st23" d="M1048.59,1197.69c0,0,0.91,1.56,4.24,1.86c3.45,0.31,4.08-0.8,4.08-0.8s1.87,2.53,4.48,3.22
				c2.61,0.69,7.3-1.41,7.3-1.41l-1.09-3.3l-13.45-1.79L1048.59,1197.69z"/>
			<path class="st23" d="M1069.38,1205.95l-1.77-8.68l36.56-22.63l20.65-45.03c3.22-7.94,10.42-10.36,13.13-8.94l6.49,6.48
				c2.71,1.42-7.57,18.5-8.97,21.48l-22.59,37.53L1069.38,1205.95z"/>
			<g>
				<path class="st23" d="M1067.61,1197.27l-12.11,1.35c0,0-0.04,2.9-4.94,5.78c-4.63,2.72-9.86,2.72-9.86,2.72s2.11,2.33,5.95,3.78
					c3.3,1.25,9.12,0.35,12.18-0.35c6.62-1.52,10.55-4.59,10.55-4.59l0.92-3.83L1067.61,1197.27z"/>
			</g>
		</g>
		<g>
			<path class="st11" d="M1136.66,1151.24c-2.28-0.38-7.29-1.58-10.25-2.76c-4.74-1.87-8.56-5.16-9.78-7l7.81-14.24
				c4.64-8.89,9.85-9.93,14.72-8.2c4.88,1.73,6.94,3.87,5.59,10.74C1143.41,1136.65,1136.66,1151.24,1136.66,1151.24z"/>
			<path class="st16" d="M1128.74,1143.57c2.77,1.05,7.12,2.15,9.92,2.73c-1.14,2.9-2,4.94-2,4.94c-2.28-0.38-7.29-1.58-10.25-2.76
				c-4.74-1.87-8.56-5.16-9.78-7l2.37-4.33C1120.55,1138.87,1124.41,1141.93,1128.74,1143.57z"/>
		</g>
		<polygon class="st19" points="1193.92,1372.79 1174.12,1387.61 1182.35,1398.28 1201.58,1385.17 		"/>
	</g>
	<g>
		<ellipse class="st0" cx="472.39" cy="1439.25" rx="101.47" ry="18.57"/>
		<g>
			<g>
				<path class="st26" d="M539.07,1150.17l-1.68-9.18l-37,16.84c0,0-44.15-25.85-47.1-25.04c0,0-7.43,1.75-7.92,9.12
					c-0.48,7.37,56.56,31.86,56.56,31.86L539.07,1150.17z"/>
				<g>
					<g>
						<path class="st26" d="M537.29,1143.58l13.81-3.47l5.44,1.44l9.23,3.58c0,0-8.97,8.41-15.65,7.98
							c-6.68-0.43-11.04-2.95-11.04-2.95L537.29,1143.58z"/>
					</g>
					<path class="st26" d="M557.59,1137.95c0,0-0.58,1.78-3.75,2.68c-3.27,0.92-4.09-0.12-4.09-0.12s-1.33,2.96-3.72,4.13
						c-2.39,1.18-8.74-1.06-8.74-1.06v-2.56l14.51-4.41L557.59,1137.95z"/>
				</g>
			</g>
			<g>
				<path class="st11" d="M472.16,1166.55c1.74-1.47,5.35-5.02,7.25-7.55c3.03-4.04,4.54-8.93,4.6-11.21l-14.17-9.22
					c-8.64-5.87-13.62-4.27-16.84-0.29c-3.22,3.98-3.85,6.95,0.94,12.58C458.71,1156.48,472.16,1166.55,472.16,1166.55z"/>
				<path class="st11" d="M474.82,1155.64c-1.79,2.32-4.91,5.47-6.98,7.37c2.51,2.1,4.31,3.54,4.31,3.54
					c1.74-1.47,5.35-5.02,7.25-7.55c3.03-4.04,4.54-8.93,4.6-11.21l-4.31-2.8C479.29,1147.31,477.63,1152,474.82,1155.64z"/>
			</g>
			<polygon class="st11" points="472.19,1133.21 473.12,1124.04 449.22,1114.38 448.05,1121.65 			"/>
			<g>
				<path class="st26" d="M463.06,1163.53c22.12,1.74,6.89-21.75,4.65-37.7l-0.4-32.89l-9.1-2.26c0,0-3.95,9.25-10.01,15.08
					c-0.75,7.81-1.63,16.27-2.08,18.43C447.17,1128.36,440.93,1161.79,463.06,1163.53z"/>
				<path class="st27" d="M480.93,1065.81c3.92,8.75-0.29,15.41,2.58,19.18c2.87,3.77,4.07,3.36,4.27,4.94
					c0.19,1.57-2.65,2.18-2.75,4.32c-0.13,2.6-0.85,6.47-0.9,9.19c-0.06,3.35,0.75,5.47-1.87,6.95c-4.86,2.73-13.18-0.33-17.9-2.06
					c-6.71-2.45-13.1-10.38-13.9-16.38c-4.74-1.23-21.1-11.06-12.82-25.05C445.9,1052.91,473.57,1049.38,480.93,1065.81z"/>
				<path d="M480.93,1065.81c-1.85-1.14-15.98-1.69-18.09,5.9c-1.76,6.34,0.12,9.13-7.18,12.66c-4.65-5.32-8.66,2.01-5.01,4.26
					c0.8,0.49,0.4,2.55,0.4,2.55l2.74,8.31l-5.51,6.26c0,0-14.77-4.63-16.17-21.7c-1.42-17.38,6.29-28.05,17.06-29.54
					C468.46,1051.86,477.88,1058.58,480.93,1065.81z"/>
				<g>
					<path class="st14" d="M481.01,1065.26c0.33-3.01-3.36-16.93-9.12-20.41c-5.77-3.49-18.17-4.65-22.48-3.58
						c-4.31,1.07-14.96,8.08-18.41,14.04c-3.3,5.7,0.46,18.11,1.32,21.66C451.95,1075.57,464.09,1072.56,481.01,1065.26z"/>
					<path class="st15" d="M459.81,1072.8c0,0,10.62,0.4,28.7-1.11c13.59-1.14,15.26-10.68,15.26-10.68l-23.48-1.07
						c0,0-0.86,1.91-6.32,5.73C468.5,1069.49,459.81,1072.8,459.81,1072.8z"/>
				</g>
				<path d="M480.96,1083.96c-0.09,1.27-1.19,2.23-2.47,2.14c-1.27-0.09-2.23-1.19-2.14-2.47c0.09-1.27,1.19-2.23,2.47-2.14
					C480.09,1081.59,481.05,1082.69,480.96,1083.96z"/>
				<path class="st16" d="M484.17,1102.31c0.22-1.81,0.52-3.79,0.63-5.65l-6.93,0.29C477.87,1096.95,480.66,1100.98,484.17,1102.31z
					"/>
				<path class="st27" d="M456.11,1087.76c-0.5,3.62-2.71,6.3-4.94,5.99c-2.23-0.31-3.62-3.49-3.12-7.11
					c0.5-3.62,2.71-6.3,4.94-5.99C455.21,1080.96,456.61,1084.15,456.11,1087.76z"/>
				<path d="M482.48,1079.14l-9.27,0.3l0-0.51c0.01-1.31,1.36-2.36,3.01-2.35l6.44-0.38L482.48,1079.14z"/>
				<path class="st14" d="M450.24,1041.43l-3.84,1.38c-0.65,0.23-1.37-0.11-1.61-0.76l0,0c-0.23-0.65,0.11-1.37,0.76-1.61l3.84-1.38
					c0.65-0.23,1.37,0.11,1.61,0.76l0,0C451.23,1040.47,450.89,1041.19,450.24,1041.43z"/>
				<path d="M437.81,1081.17c0.02,2.58-2.05,4.68-4.63,4.7c-2.58,0.02-4.68-2.05-4.7-4.63c-0.02-2.58,2.05-4.68,4.63-4.7
					C435.69,1076.52,437.79,1078.59,437.81,1081.17z"/>
				<path d="M438.4,1089.16c0.02,2.58-2.05,4.68-4.63,4.7c-2.58,0.02-4.68-2.05-4.7-4.63c-0.02-2.58,2.05-4.68,4.63-4.7
					C436.28,1084.51,438.38,1086.59,438.4,1089.16z"/>
				<path d="M442.38,1095.82c0.02,2.58-2.05,4.68-4.63,4.7c-2.58,0.02-4.68-2.05-4.7-4.63c-0.02-2.58,2.05-4.68,4.63-4.7
					C440.25,1091.17,442.36,1093.25,442.38,1095.82z"/>
				<path d="M448.16,1100.87c0.02,2.58-2.05,4.68-4.63,4.7c-2.58,0.02-4.68-2.05-4.7-4.63c-0.02-2.58,2.05-4.68,4.63-4.7
					C446.03,1096.22,448.14,1098.29,448.16,1100.87z"/>
				<path d="M454.71,1102.13c0.02,2.58-2.05,4.68-4.63,4.7c-2.58,0.02-4.68-2.05-4.7-4.63c-0.02-2.58,2.05-4.68,4.63-4.7
					C452.58,1097.48,454.69,1099.56,454.71,1102.13z"/>
			</g>
			<path class="st14" d="M474.66,1138.26l-6.7-8.16l-21.97-9.49c0,0-5.15,8.04-5.13,22.64c0.02,9.6,4.53,83.13,4.53,83.13h42.17
				c0,0,0.16-43.46,0-53.05C487.43,1165.54,474.66,1138.26,474.66,1138.26z"/>
			<polygon class="st11" points="468.15,1132.44 469.07,1123.26 445.17,1113.6 444.01,1120.87 			"/>
			<polygon class="st17" points="474.66,1138.26 469.02,1123.79 468.31,1130.81 			"/>
			<polygon class="st28" points="486.65,1235.2 527.01,1333.87 541.11,1421.85 516.87,1422.43 495.6,1339.69 438.2,1247.44 			"/>
			<path class="st18" d="M445.17,1226.39c0,0-7.54,14.77-7.54,27.56c0,5.23-0.91,77.44-0.91,77.44l-42.15,75.43l20.1,10.62
				l54.98-80.24l17.68-110.81H445.17z"/>
			<path class="st26" d="M487.27,1226.39h-42.1c0,0-1.08,2.27-1.81,4.01c-0.73,1.74-1.9,4.8-1.9,4.8h45.2L487.27,1226.39z"/>
			<rect x="458.85" y="1226.39" class="st18" width="3.12" height="8.81"/>
			<g>
				<path class="st26" d="M384.88,1422.53l6.85-9.06c0,0,14.61,9.95,16.93,12.46c2.35,3.82,12.27,4.29,13.27,8.51
					c0.57,2.42-2.42,9.89-2.42,9.89s-14.15-1.48-18.48-8.12C396.7,1429.58,384.88,1422.53,384.88,1422.53z"/>
				<path class="st20" d="M386.34,1420.56c0,0,8.45,5.99,15.12,14.37c6.67,8.38,19.19,6.34,19.19,6.34l-1,3.04
					c0,0-12.45,2.21-19.19-6.34c-6.74-8.55-15.57-15.44-15.57-15.44L386.34,1420.56z"/>
			</g>
			<g>
				<path class="st26" d="M522.86,1444.68l-2.96-10.97c0,0,16.82-5.44,20.22-5.74c4.46,0.48,10.91-7.07,14.86-5.27
					c2.26,1.03,6.33,7.97,6.33,7.97s-9.85,10.27-17.75,9.63S522.86,1444.68,522.86,1444.68z"/>
				<path class="st20" d="M522.21,1442.32c0,0,9.91-3,20.62-3.14c10.71-0.13,16.77-11.27,16.77-11.27l1.78,2.65
					c0,0-5.88,11.19-16.77,11.27c-10.89,0.08-21.74,2.84-21.74,2.84L522.21,1442.32z"/>
			</g>
			<polygon class="st19" points="515.89,1419.66 541.08,1413.3 542.75,1427.57 519.96,1433.92 			"/>
			<path class="st19" d="M483.68,1235.2h-2.43c0,0.06,0.43,6.33-2.9,11.77c-3.78,6.18-9.99,7.58-11.28,7.81v-19.59h-2.3v21.96
				c0,0,1.19,0.08,2.3,0c1.11-0.08,8.59-1.34,13.26-8.98C484.07,1242.09,483.7,1235.48,483.68,1235.2z"/>
			<polygon class="st19" points="398.17,1399.81 417.59,1415.49 409.52,1426.79 390.67,1412.91 			"/>
			<path class="st27" d="M522.15,1237.01c0,0-1.27,1.38-4.52,0.89c-3.36-0.51-3.67-1.8-3.67-1.8s-2.43,2.14-5.1,2.22
				c-2.67,0.08-6.57-3.21-6.57-3.21l1.89-3.13l13.25,1.41L522.15,1237.01z"/>
			<g>
				<rect x="492.22" y="1131.88" class="st21" width="117.46" height="14.12"/>
			</g>
			<g>
				<rect x="501.14" y="1117.73" class="st1" width="117.46" height="14.11"/>
			</g>
			<g>
				<rect x="495.03" y="1103.65" class="st20" width="117.46" height="14.12"/>
			</g>
			<g>
				<g>
					<path class="st29" d="M540.88,1225.09l-1.26-3.03l-4.19-1.55l-1.66,1.82l-1.02,6.51l7.16,2.64L540.88,1225.09z"/>
					<path class="st30" d="M533.41,1277.4l-26.28-9.7c-1.71-0.63-2.59-2.53-1.96-4.24l14.4-39.03c0.63-1.71,2.53-2.59,4.24-1.96
						l26.28,9.7c1.71,0.63,2.59,2.53,1.96,4.24l-14.4,39.03C537.02,1277.16,535.12,1278.03,533.41,1277.4z"/>
					
						<rect x="507.17" y="1235.27" transform="matrix(0.3462 -0.9382 0.9382 0.3462 -827.0371 1313.157)" class="st31" width="42.89" height="29.34"/>
					<polygon class="st1" points="540.06,1231.54 532.73,1228.83 529.96,1229 529.03,1231.53 540.96,1235.94 541.9,1233.4 					"/>
					<path class="st1" d="M543.76,1222.21l-4.22-1.56l-3.06,1.82l-3.74,6.37l7.2,2.66l3.79-6.51L543.76,1222.21z"/>
					
						<rect x="532.32" y="1226.98" transform="matrix(0.3462 -0.9382 0.9382 0.3462 -813.3356 1309.5798)" class="st32" width="1.16" height="22.68"/>
					
						<rect x="530.42" y="1232.12" transform="matrix(0.3462 -0.9382 0.9382 0.3462 -819.3956 1311.1604)" class="st32" width="1.16" height="22.68"/>
					
						<rect x="528.64" y="1236.96" transform="matrix(0.3462 -0.9382 0.9382 0.3462 -825.1063 1312.6592)" class="st32" width="1.16" height="22.68"/>
					
						<rect x="526.75" y="1242.08" transform="matrix(0.3462 -0.9382 0.9382 0.3462 -831.1394 1314.2285)" class="st32" width="1.16" height="22.68"/>
					
						<rect x="525.09" y="1246.58" transform="matrix(0.3462 -0.9382 0.9382 0.3462 -836.4484 1315.6133)" class="st32" width="1.16" height="22.68"/>
					
						<rect x="523.12" y="1251.9" transform="matrix(0.3462 -0.9382 0.9382 0.3462 -842.7228 1317.2473)" class="st32" width="1.16" height="22.68"/>
				</g>
				
					<rect x="532.4" y="1227.46" transform="matrix(0.3462 -0.9382 0.9382 0.3462 -810.3515 1307.6161)" class="st33" width="1.16" height="15.49"/>
				
					<rect x="526.07" y="1259.69" transform="matrix(0.3462 -0.9382 0.9382 0.3462 -844.7238 1322.755)" class="st33" width="1.16" height="15.49"/>
				
					<rect x="530.71" y="1257.29" transform="matrix(0.3462 -0.9382 0.9382 0.3462 -836.9926 1323.8405)" class="st33" width="1.16" height="10.25"/>
			</g>
			<path class="st27" d="M500.95,1241.12l3.95-8.48l-28.84-32.04l-7.88-51.18c-0.99-8.93-7.2-13.15-10.14-12.34l-7.86,5.07
				c-2.95,0.81,2.37,20.81,2.92,24.2l11.68,43.96L500.95,1241.12z"/>
			<g>
				<path class="st27" d="M504.19,1231.97l11.16,4.31l4.35,3.57l6.91,7.08c0,0-2.03,3.52-6.07,4.08c-3.47,0.48-8.76-1.85-11.48-3.31
					c-5.9-3.16-8.83-7.26-8.83-7.26L504.19,1231.97z"/>
			</g>
			<g>
				<path class="st11" d="M451.29,1168.75c2.27,0.16,7.34,0.14,10.46-0.35c4.99-0.78,9.48-3.22,11.12-4.81l-3.71-16.49
					c-2.09-10.23-6.76-12.57-11.85-11.97c-5.08,0.6-7.61,2.29-8.12,9.66C448.69,1152.15,451.29,1168.75,451.29,1168.75z"/>
				<path class="st16" d="M460.82,1162.8c-2.9,0.41-7.33,0.49-10.14,0.4c0.33,3.25,0.61,5.55,0.61,5.55
					c2.27,0.16,7.34,0.14,10.46-0.35c4.99-0.78,9.48-3.22,11.12-4.81l-1.13-5.01C469.82,1159.95,465.37,1162.15,460.82,1162.8z"/>
			</g>
			<rect x="528.54" y="1103.65" class="st3" width="3.33" height="42.34"/>
			<rect x="577.2" y="1103.65" class="st3" width="3.33" height="42.34"/>
			<polygon class="st3" points="553.76,1103.65 538.99,1093.01 534.85,1098.99 			"/>
			<polygon class="st3" points="568.78,1095.66 553.76,1103.65 572.26,1101 			"/>
			<polygon class="st34" points="553.76,1103.65 561.41,1095.33 555.98,1095.33 			"/>
		</g>
	</g>
	<g>
		<ellipse class="st0" cx="448.05" cy="802.79" rx="85.27" ry="19"/>
		<g>
			<g>
				<g>
					<ellipse cx="447.14" cy="421.45" rx="27.85" ry="28.99"/>
					<path class="st12" d="M447.13,484.98c14.67,0,10.68-6.65,12.77-10.55l-3.34-18.94h-18.93c0,0-2.71,14.55-3.34,18.99
						C435.83,478.65,432.46,484.98,447.13,484.98z"/>
					<path class="st13" d="M473.13,428.79c0,18.23-4.57,37.8-26.03,37.8c-21.46,0-26.03-19.57-26.03-37.8
						c0-18.23,11.31-25.86,25.68-25.86C461.13,402.92,473.13,410.56,473.13,428.79z"/>
					<path class="st13" d="M427.61,434.99c0,3.74-2.92,6.77-6.52,6.77c-3.6,0-6.52-3.03-6.52-6.77c0-3.74,2.92-6.77,6.52-6.77
						C424.69,428.22,427.61,431.25,427.61,434.99z"/>
					<path class="st13" d="M479.95,434.99c0,3.74-2.92,6.77-6.52,6.77c-3.6,0-6.52-3.03-6.52-6.77c0-3.74,2.92-6.77,6.52-6.77
						C477.03,428.22,479.95,431.25,479.95,434.99z"/>
					<g>
						<g>
							<path class="st35" d="M440.38,433.78h-12.52c-1.92,0-3.48-1.43-3.48-3.18v-4.77c0-1.75,1.57-3.18,3.48-3.18h12.52
								c1.92,0,3.48,1.43,3.48,3.18v4.77C443.86,432.35,442.3,433.78,440.38,433.78z"/>
							<path class="st35" d="M466.34,433.78h-12.52c-1.92,0-3.48-1.43-3.48-3.18v-4.77c0-1.75,1.57-3.18,3.48-3.18h12.52
								c1.92,0,3.48,1.43,3.48,3.18v4.77C469.83,432.35,468.26,433.78,466.34,433.78z"/>
						</g>
						<g>
							<path d="M440.38,434.68h-12.51c-2.46,0-4.47-1.83-4.47-4.07v-4.77c0-2.25,2-4.07,4.47-4.07h12.51c2.46,0,4.47,1.83,4.47,4.07
								v4.77C444.84,432.85,442.84,434.68,440.38,434.68z M427.87,423.55c-1.38,0-2.51,1.03-2.51,2.29v4.77
								c0,1.26,1.13,2.29,2.51,2.29h12.51c1.38,0,2.51-1.03,2.51-2.29v-4.77c0-1.26-1.12-2.29-2.51-2.29H427.87z"/>
							<path d="M466.34,434.68h-12.51c-2.46,0-4.47-1.83-4.47-4.07v-4.77c0-2.25,2-4.07,4.47-4.07h12.51c2.46,0,4.47,1.83,4.47,4.07
								v4.77C470.81,432.85,468.8,434.68,466.34,434.68z M453.83,423.55c-1.38,0-2.51,1.03-2.51,2.29v4.77
								c0,1.26,1.12,2.29,2.51,2.29h12.51c1.38,0,2.51-1.03,2.51-2.29v-4.77c0-1.26-1.12-2.29-2.51-2.29H453.83z"/>
						</g>
						<g>
							<rect x="444.84" y="426.63" width="5.5" height="1.79"/>
						</g>
						<g>
							<polygon points="474.27,428.47 469.66,428.66 469.99,426.9 474.48,426.78 							"/>
						</g>
						<g>
							<polygon points="420.21,428.47 424.81,428.66 424.48,426.9 419.8,426.78 							"/>
						</g>
					</g>
					<path d="M436.19,427.97c0,0.93-0.83,1.69-1.85,1.69c-1.02,0-1.85-0.76-1.85-1.69c0-0.93,0.83-1.69,1.85-1.69
						C435.36,426.29,436.19,427.04,436.19,427.97z"/>
					<path d="M461.94,427.97c0,0.93-0.83,1.69-1.85,1.69s-1.85-0.76-1.85-1.69c0-0.93,0.83-1.69,1.85-1.69
						S461.94,427.04,461.94,427.97z"/>
					<path d="M451.9,441.47h-9.28c0,0-8.82,3.62-8.82,8.04v9.03c0,4.42,3.97,8.04,8.82,8.04h9.28c4.85,0,8.82-3.62,8.82-8.04v-9.03
						C460.72,445.09,451.9,441.47,451.9,441.47z M456.52,454.08c0,2.79-2.5,5.07-5.56,5.07h-7.39c-3.06,0-5.56-2.28-5.56-5.07v-4.61
						c0-2.79,5.56-5.07,5.56-5.07h7.39c0,0,5.56,2.28,5.56,5.07V454.08z"/>
					<path class="st16" d="M454.17,448.13c0,0-3.11,4.61-6.94,4.61c-3.83,0-6.94-4.61-6.94-4.61H454.17z"/>
				</g>
				<g class="st36">
					<path class="st37" d="M447.12,406.81c12.71,0,16.05,6.04,27.69,13.7c1.18-2.91,1.14-20.77-4.19-25.64
						c-5.34-4.88-18.52-9.1-23.5-9.1c-4.98,0-18.47,4.34-23.84,9.4c-5.13,4.84-5.03,22.37-3.86,25.28
						C429.57,412.55,434.41,406.81,447.12,406.81z"/>
					<path class="st38" d="M447.2,405.62c-0.03,0-0.07,0-0.1,0c-0.03,0-0.07,0-0.1,0c-15.26,0-21.53,8.25-27.64,14.84
						c11,2.84,13.55-12.4,27.34-12.57c0,0,0.26,0,0.4,0c0.13,0.01,0.4,0,0.4,0c13.79,0.18,16.35,15.42,27.34,12.57
						C468.73,413.87,462.46,405.62,447.2,405.62z"/>
					<path class="st37" d="M449.39,386.56h-4.58c-0.77,0-1.41-0.58-1.41-1.29l0,0c0-0.71,0.63-1.28,1.41-1.28h4.58
						c0.77,0,1.41,0.58,1.41,1.28l0,0C450.8,385.98,450.16,386.56,449.39,386.56z"/>
				</g>
			</g>
			<g>
				<path class="st12" d="M437.78,803.1v-12.9h-22.61c0,0-17.64-1.26-20.18,2.52c-1.46,2.17-0.91,10.38-0.91,10.38H437.78z"/>
				<rect x="393.96" y="799.77" class="st20" width="43.88" height="3.27"/>
			</g>
			<g>
				<path class="st12" d="M456.44,803.1v-12.9h22.61c0,0,17.64-1.26,20.18,2.52c1.46,2.17,0.91,10.38,0.91,10.38H456.44z"/>
				<rect x="456.38" y="799.77" class="st20" width="43.88" height="3.27"/>
			</g>
			<path class="st14" d="M487.35,600.46l12.35-0.44l15.22-56.13c0,0-5.29-25.7-13.11-44.48c-4.74-11.39-8.49-21.54-13.63-21.54
				c-13.61,0-10.1,5.3-10.1,5.3c-3.31,0.82,2.8,19.87,3.43,23.34l13.31,37.38L487.35,600.46z"/>
			<path class="st14" d="M406.72,600.46l-12.35-0.44l-15.22-56.13c0,0,5.29-25.7,13.11-44.48c4.74-11.39,8.49-21.54,13.63-21.54
				c13.61,0,10.1,5.3,10.1,5.3c3.31,0.82-2.8,19.87-3.43,23.34l-13.31,37.38L406.72,600.46z"/>
			<path class="st18" d="M408.2,590.86c0,0-1.98,45.65-1.98,58.74c0,13.09,5.89,140.63,5.89,140.63h25.66l8.25-152.63h2.28
				l8.14,152.63h25.66c0,0,5.88-126.57,5.88-140.05c0-13.48-1.96-59.32-1.96-59.32H408.2z"/>
			<path class="st16" d="M461.97,507.6h-28.75v-30.54c0,0,4.9,6.45,13.82,6.45s14.93-7.64,14.93-7.64V507.6z"/>
			<polygon class="st12" points="486.08,590.86 408.17,590.86 407.82,599.88 486.4,599.88 			"/>
			<rect x="464.22" y="590.86" class="st18" width="3.5" height="9.01"/>
			<rect x="426.61" y="590.86" class="st18" width="3.5" height="9.01"/>
			<path class="st14" d="M488.8,477.93c-2.63-0.8-30.64-3.27-30.64-3.27l-11.43,32.44l-11.13-32.44c0,0-27.93,2.47-30.56,3.27
				c3.12,2.68,3.54,9.49,3.16,17.47c-0.47,9.82-0.21,95.46-0.21,95.46h77.91c0,0-0.16-87.95-0.34-97.77
				C485.4,485.11,485.68,480.61,488.8,477.93z"/>
			<polygon class="st17" points="446.92,507.1 435.05,470.45 436.25,489.59 			"/>
			<polygon class="st11" points="424.46,494.92 436.25,489.59 435.05,470.45 425.96,475.57 			"/>
			<polygon class="st17" points="446.92,507.1 458.79,470.45 457.59,489.59 			"/>
			<polygon class="st11" points="469.38,494.92 457.59,489.59 458.79,470.45 467.88,475.57 			"/>
			<g>
				<polygon class="st11" points="439.52,515.35 427.09,517.88 414.66,515.35 414.66,508.95 439.52,508.95 				"/>
				<ellipse class="st16" cx="427.09" cy="514.6" rx="1.3" ry="1.19"/>
			</g>
			<g>
				<polygon class="st16" points="479.07,519.65 454.22,519.65 454.22,507.31 464.68,507.31 479.07,507.31 				"/>
				<polygon class="st29" points="465.4,507.32 465.4,505.7 464.46,507.32 				"/>
				<rect x="465.4" y="505.7" class="st1" width="2.49" height="3.24"/>
				<rect x="464.46" y="511.76" class="st1" width="12.29" height="1.04"/>
				<rect x="464.46" y="515.19" class="st1" width="12.29" height="1.04"/>
				<rect x="455.98" y="510.43" class="st1" width="7.51" height="7.18"/>
			</g>
			<polygon class="st19" points="408.9,775.64 438.56,775.64 437.77,790.24 408.2,790.24 			"/>
			<polygon class="st19" points="455.67,775.64 485.07,775.64 485.96,790.24 456.38,790.24 			"/>
			<path class="st19" d="M487.26,622.35c-0.38-0.04-9.56-1.13-14.96-9.19c-4.19-6.24-3.77-13-3.75-13.28h2.73
				c0,0.06-0.49,6.47,3.25,12.04c4.73,7.05,12.57,8.03,12.65,8.04L487.26,622.35z"/>
			<path class="st19" d="M406.98,622.35c0.38-0.04,9.56-1.13,14.96-9.19c4.19-6.24,3.77-13,3.75-13.28h-2.73
				c0.01,0.06,0.49,6.47-3.25,12.04c-4.73,7.05-12.57,8.03-12.65,8.04L406.98,622.35z"/>
			<path class="st19" d="M449.3,626.37c-2.07,0-5.6-0.3-8.2-2.09c-2.99-2.07-2.6-17.79-2.31-24.4l2.57,0.02
				c-0.43,9.71-0.03,21.19,1.34,22.5c2.09,1.44,5.17,1.61,6.85,1.59V599.9h2.61v26.27l-1.15,0.12
				C450.93,626.3,450.28,626.37,449.3,626.37z"/>
			<g>
				<rect x="442.76" y="589.98" class="st39" width="2.31" height="10.81"/>
				<rect x="444.74" y="599.9" class="st39" width="6.92" height="0.89"/>
				<rect x="443.43" y="594.82" class="st20" width="3.98" height="1.01"/>
				<rect x="444.74" y="589.98" class="st39" width="6.92" height="0.89"/>
			</g>
			<g>
				<rect x="379.88" y="596.35" class="st21" width="134.06" height="13.4"/>
			</g>
			<g>
				<rect x="374.66" y="569.78" class="st21" width="134.06" height="13.4"/>
			</g>
			<g>
				<rect x="387.71" y="543.2" class="st21" width="134.06" height="13.4"/>
			</g>
			<g>
				<rect x="382.06" y="583.06" class="st39" width="134.06" height="13.4"/>
			</g>
			<g>
				<rect x="379.01" y="556.49" class="st39" width="134.06" height="13.4"/>
			</g>
			<path class="st13" d="M415.48,611.39c0,0,3.2-3.48-1.12-6.22c-3.2-0.18-6.7,0.22-7.05,0.78c-1.88,3.03-5.4,3.74-5.4,3.74
				s0.66,1.76,4.39,2.43C409.07,612.61,415.48,611.39,415.48,611.39z"/>
			<path class="st13" d="M478.03,611.39c0,0-3.2-3.48,1.12-6.22c3.2-0.18,6.7,0.22,7.05,0.78c1.88,3.03,5.4,3.74,5.4,3.74
				s-0.66,1.76-4.39,2.43C484.43,612.61,478.03,611.39,478.03,611.39z"/>
		</g>
	</g>
	<g>
		<ellipse class="st0" cx="724.06" cy="1308.94" rx="141.1" ry="34.47"/>
		<g>
			<path class="st40" d="M883.16,806.84c0,0,20.87-27.71,55.41-16.55c34.54,11.15,82.22,84.56,82.22,84.56L913.74,847.5
				L883.16,806.84z"/>
			<g>
				<ellipse cx="723.6" cy="618.6" rx="46.08" ry="52.59"/>
				<path class="st12" d="M723.58,733.87c24.28,0,17.66-12.06,21.14-19.14l-5.52-34.36h-31.32c0,0-4.49,26.4-5.53,34.45
					C704.89,722.38,699.3,733.87,723.58,733.87z"/>
				<path class="st13" d="M766.61,631.91c0,33.08-7.56,68.58-43.07,68.58c-35.51,0-43.07-35.5-43.07-68.58
					c0-33.08,18.71-46.93,42.5-46.93C746.75,584.99,766.61,598.84,766.61,631.91z"/>
				<ellipse class="st13" cx="680.5" cy="643.17" rx="10.79" ry="12.29"/>
				<path class="st13" d="M777.88,643.17c0,6.79-4.83,12.29-10.79,12.29c-5.96,0-10.79-5.5-10.79-12.29
					c0-6.79,4.83-12.29,10.79-12.29C773.05,630.88,777.88,636.38,777.88,643.17z"/>
				<g>
					<g>
						<path class="st35" d="M712.41,640.98h-20.71c-3.17,0-5.76-2.59-5.76-5.76v-8.66c0-3.17,2.59-5.76,5.76-5.76h20.71
							c3.17,0,5.76,2.59,5.76,5.76v8.66C718.18,638.38,715.58,640.98,712.41,640.98z"/>
						<path class="st35" d="M755.37,640.98h-20.71c-3.17,0-5.76-2.59-5.76-5.76v-8.66c0-3.17,2.59-5.76,5.76-5.76h20.71
							c3.17,0,5.76,2.59,5.76,5.76v8.66C761.14,638.38,758.54,640.98,755.37,640.98z"/>
					</g>
					<g>
						<path d="M712.41,642.6h-20.7c-4.08,0-7.39-3.32-7.39-7.39v-8.65c0-4.07,3.32-7.39,7.39-7.39h20.7c4.07,0,7.39,3.32,7.39,7.39
							v8.65C719.8,639.28,716.48,642.6,712.41,642.6z M691.71,622.41c-2.29,0-4.15,1.86-4.15,4.15v8.65c0,2.29,1.86,4.15,4.15,4.15
							h20.7c2.29,0,4.15-1.86,4.15-4.15v-8.65c0-2.29-1.86-4.15-4.15-4.15H691.71z"/>
						<path d="M755.37,642.6h-20.7c-4.08,0-7.39-3.32-7.39-7.39v-8.65c0-4.07,3.32-7.39,7.39-7.39h20.7c4.08,0,7.39,3.32,7.39,7.39
							v8.65C762.76,639.28,759.44,642.6,755.37,642.6z M734.67,622.41c-2.29,0-4.15,1.86-4.15,4.15v8.65c0,2.29,1.86,4.15,4.15,4.15
							h20.7c2.29,0,4.15-1.86,4.15-4.15v-8.65c0-2.29-1.86-4.15-4.15-4.15H734.67z"/>
					</g>
					<g>
						<rect x="719.8" y="628.01" width="9.1" height="3.24"/>
					</g>
					<g>
						<polygon points="768.48,631.34 760.86,631.68 761.41,628.48 768.84,628.28 						"/>
					</g>
					<g>
						<polygon points="679.04,631.34 686.65,631.68 686.11,628.48 678.36,628.28 						"/>
					</g>
				</g>
				<path d="M705.48,630.44c0,1.69-1.37,3.06-3.06,3.06s-3.06-1.37-3.06-3.06c0-1.69,1.37-3.06,3.06-3.06
					S705.48,628.75,705.48,630.44z"/>
				<path d="M748.08,630.44c0,1.69-1.37,3.06-3.06,3.06c-1.69,0-3.06-1.37-3.06-3.06c0-1.69,1.37-3.06,3.06-3.06
					C746.71,627.38,748.08,628.75,748.08,630.44z"/>
				<path d="M731.47,654.92h-15.35c0,0-14.59,6.57-14.59,14.59v16.39c0,8.02,6.57,14.59,14.59,14.59h15.35
					c8.02,0,14.59-6.57,14.59-14.59v-16.39C746.06,661.49,731.47,654.92,731.47,654.92z M739.12,677.8c0,5.06-4.14,9.2-9.2,9.2
					h-12.23c-5.06,0-9.2-4.14-9.2-9.2v-8.37c0-5.06,9.2-9.2,9.2-9.2h12.23c0,0,9.2,4.14,9.2,9.2V677.8z"/>
				<path class="st16" d="M735.24,667.01c0,0-5.14,8.37-11.48,8.37c-6.34,0-11.48-8.37-11.48-8.37H735.24z"/>
			</g>
			<path class="st14" d="M723.56,592.04c21.02,0,26.56,10.96,45.82,24.86c1.95-5.27,1.88-37.68-6.93-46.52
				c-8.84-8.86-30.65-16.5-38.89-16.5c-8.24,0-30.56,7.87-39.44,17.06c-8.49,8.79-8.33,40.59-6.38,45.87
				C694.53,602.45,702.54,592.04,723.56,592.04z"/>
			<path class="st15" d="M723.7,589.88c-0.06,0-0.11,0-0.17,0.01c-0.06,0-0.11-0.01-0.17-0.01c-25.26,0-35.63,14.98-45.73,26.93
				c18.2,5.16,22.42-22.49,45.24-22.81c0,0,0.44,0,0.65,0c0.22,0.01,0.65,0,0.65,0c22.82,0.32,27.05,27.97,45.24,22.81
				C759.32,604.86,748.95,589.88,723.7,589.88z"/>
			<path class="st14" d="M727.32,555.3h-7.58c-1.28,0-2.33-1.05-2.33-2.33l0,0c0-1.28,1.05-2.33,2.33-2.33h7.58
				c1.28,0,2.33,1.05,2.33,2.33l0,0C729.65,554.25,728.6,555.3,727.32,555.3z"/>
			<g>
				<path class="st13" d="M873.42,902.05l24.56,4.13l8.08,6.62l12.83,13.15c0,0-21.63,7.3-32.57,1.44
					c-10.94-5.87-16.39-13.47-16.39-13.47L873.42,902.05z"/>
			</g>
			<path class="st14" d="M862.78,910.45l13.06-20.5l-46.46-56.3l-20.29-89.93c-1.83-16.57-13.35-24.4-18.83-22.9l-14.59,9.42
				c-5.48,1.49,4.39,38.62,5.42,44.92l21.67,81.59L862.78,910.45z"/>
			<polygon class="st11" points="868.47,918.75 883.66,895.51 873.08,884.92 856.17,907.95 			"/>
			<g>
				<path class="st13" d="M572.32,902.05l-24.56,4.13l-8.08,6.62l-12.83,13.15c0,0,21.63,7.3,32.57,1.44
					c10.94-5.87,16.39-13.47,16.39-13.47L572.32,902.05z"/>
			</g>
			<path class="st14" d="M582.95,910.45l-13.07-20.5l46.46-56.3l20.29-89.93c1.83-16.57,13.35-24.4,18.83-22.9l14.59,9.42
				c5.48,1.49-4.39,38.62-5.42,44.92l-21.67,81.59L582.95,910.45z"/>
			<polygon class="st11" points="577.26,918.75 562.07,895.51 572.65,884.92 589.56,907.95 			"/>
			<g>
				<path class="st12" d="M708.03,1310.58v-23.4h-37.4c0,0-29.18-2.29-33.39,4.56c-2.42,3.93-1.5,18.84-1.5,18.84H708.03z"/>
				<rect x="635.53" y="1304.53" class="st20" width="72.61" height="5.94"/>
			</g>
			<g>
				<path class="st12" d="M738.92,1310.58v-23.4h37.41c0,0,29.18-2.29,33.39,4.56c2.42,3.93,1.5,18.84,1.5,18.84H738.92z"/>
				<rect x="738.82" y="1304.53" class="st20" width="72.61" height="5.94"/>
			</g>
			<path class="st18" d="M659.09,925.53c0,0-3.27,82.82-3.27,106.57s9.75,255.15,9.75,255.15h42.46l13.65-276.91h3.78l13.48,276.91
				h42.46c0,0,9.73-229.63,9.73-254.08c0-24.45-3.25-107.63-3.25-107.63H659.09z"/>
			<path class="st16" d="M748.06,774.46H700.5v-55.41c0,0,8.11,11.69,22.86,11.69c14.75,0,24.7-13.85,24.7-13.85V774.46z"/>
			<polygon class="st12" points="787.96,925.53 659.04,925.53 658.46,941.87 788.48,941.87 			"/>
			<rect x="751.79" y="925.53" class="st18" width="5.78" height="16.35"/>
			<rect x="689.55" y="925.53" class="st18" width="5.78" height="16.35"/>
			<path class="st14" d="M792.46,720.63c-4.36-1.45-50.7-5.93-50.7-5.93l-18.91,58.86l-18.42-58.86c0,0-46.22,4.48-50.57,5.93
				c5.16,4.86,5.85,17.22,5.23,31.7c-0.77,17.81-0.35,173.19-0.35,173.19h128.91c0,0,0.36-155.38-0.41-173.19
				C786.61,737.86,787.3,725.5,792.46,720.63z"/>
			<polygon class="st17" points="723.16,773.56 703.52,707.05 705.51,741.79 			"/>
			<polygon class="st11" points="685.99,751.45 705.51,741.79 703.52,707.05 688.47,716.34 			"/>
			<polygon class="st17" points="723.16,773.56 742.79,707.05 740.81,741.79 			"/>
			<polygon class="st11" points="760.32,751.45 740.81,741.79 742.79,707.05 757.84,716.34 			"/>
			<g>
				<polygon class="st11" points="710.91,788.51 690.35,793.1 669.78,788.51 669.78,776.91 710.91,776.91 				"/>
				<path class="st16" d="M692.5,787.17c0,1.19-0.97,2.16-2.16,2.16c-1.19,0-2.16-0.97-2.16-2.16c0-1.19,0.97-2.16,2.16-2.16
					C691.54,785.01,692.5,785.97,692.5,787.17z"/>
			</g>
			<g class="st36">
				<polygon class="st41" points="776.36,796.33 735.24,796.33 735.24,773.93 752.55,773.93 776.36,773.93 				"/>
				<polygon class="st42" points="753.74,773.95 753.74,771.02 752.18,773.95 				"/>
				<rect x="753.74" y="771.02" class="st43" width="4.12" height="5.87"/>
				<rect x="752.18" y="782.01" class="st43" width="20.34" height="1.89"/>
				<rect x="752.18" y="788.23" class="st43" width="20.34" height="1.89"/>
				<rect x="738.14" y="779.59" class="st43" width="12.42" height="13.03"/>
			</g>
			<polygon class="st19" points="660.26,1260.76 709.33,1260.76 708.03,1287.24 659.09,1287.24 			"/>
			<polygon class="st19" points="737.64,1260.76 786.28,1260.76 787.76,1287.24 738.82,1287.24 			"/>
			<path class="st19" d="M789.9,982.64c-0.63-0.08-15.81-2.04-24.76-16.67c-6.93-11.32-6.25-23.58-6.21-24.1h4.51
				c-0.01,0.11-0.8,11.74,5.38,21.85c7.82,12.79,20.8,14.56,20.93,14.58L789.9,982.64z"/>
			<path class="st19" d="M657.07,982.64c0.63-0.08,15.81-2.04,24.76-16.67c6.93-11.32,6.24-23.58,6.21-24.1h-4.51
				c0.01,0.11,0.8,11.74-5.38,21.85c-7.82,12.79-20.8,14.56-20.93,14.58L657.07,982.64z"/>
			<path class="st19" d="M727.1,989.93c-3.43,0-9.27-0.55-13.57-3.8c-4.95-3.75-4.31-32.27-3.82-44.26l4.24,0.04
				c-0.72,17.61-0.06,38.45,2.22,40.82c3.46,2.62,8.56,2.92,11.34,2.89v-43.7h4.32v47.66l-1.91,0.23
				C729.8,989.81,728.72,989.93,727.1,989.93z"/>
			<g>
				<rect x="716.28" y="923.91" class="st39" width="3.82" height="19.61"/>
				<rect x="719.55" y="941.91" class="st39" width="11.45" height="1.61"/>
				<rect x="717.39" y="932.71" class="st20" width="6.59" height="1.83"/>
				<rect x="719.55" y="923.91" class="st39" width="11.45" height="1.61"/>
			</g>
			<g>
				<path class="st29" d="M497.21,865.76l-6.81-2.49l-8.79,4.51l0.47,5.43l9.07,11.41l15.01-7.7L497.21,865.76z"/>
				<path class="st18" d="M572.24,955.66L515.05,985c-3.01,1.55-6.71,0.36-8.25-2.66l-43.05-83.91c-1.55-3.01-0.36-6.71,2.66-8.25
					l57.19-29.34c3.01-1.55,6.71-0.36,8.25,2.66l43.05,83.91C576.44,950.42,575.25,954.11,572.24,955.66z"/>
				
					<rect x="486.89" y="875.51" transform="matrix(0.8897 -0.4565 0.4565 0.8897 -364.0275 338.8204)" class="st31" width="64.86" height="94.83"/>
				<polygon class="st1" points="506.5,876.75 491.12,884.64 487.24,889.4 489.97,894.71 515,881.87 512.27,876.56 				"/>
				<path class="st1" d="M496.84,856.78l-8.84,4.54l-1.62,7.69l4.77,15.61l15.09-7.74l-4.92-15.9L496.84,856.78z"/>
				<g>
					
						<rect x="508.26" y="890.87" transform="matrix(0.8897 -0.4565 0.4565 0.8897 -349.9886 335.4243)" class="st32" width="22.09" height="2.57"/>
					
						<rect x="513.79" y="901.64" transform="matrix(0.8897 -0.4565 0.4565 0.8897 -354.2968 339.1351)" class="st32" width="22.09" height="2.57"/>
					
						<rect x="519" y="911.8" transform="matrix(0.8897 -0.4565 0.4565 0.8897 -358.3571 342.6324)" class="st32" width="22.09" height="2.57"/>
					
						<rect x="524.5" y="922.52" transform="matrix(0.8897 -0.4565 0.4565 0.8897 -362.6409 346.3187)" class="st32" width="22.09" height="2.57"/>
					
						<rect x="529.34" y="931.96" transform="matrix(0.8897 -0.4565 0.4565 0.8897 -366.4203 349.5778)" class="st32" width="22.09" height="2.57"/>
					
						<rect x="535.06" y="943.11" transform="matrix(0.8897 -0.4565 0.4565 0.8897 -370.881 353.4199)" class="st32" width="22.09" height="2.57"/>
				</g>
				<path class="st32" d="M508.93,913.98l-19.16,9.83l-7.87-15.35l19.16-9.83L508.93,913.98z M490.88,920.35l14.59-7.48l-5.53-10.77
					l-14.59,7.48L490.88,920.35z"/>
				<path class="st32" d="M519.88,935.33l-19.16,9.83l-7.87-15.35l19.16-9.83L519.88,935.33z M501.83,941.7l14.59-7.48l-5.53-10.77
					l-14.59,7.48L501.83,941.7z"/>
				<path class="st32" d="M530.47,955.97l-19.16,9.83l-7.87-15.35l19.16-9.83L530.47,955.97z M512.42,962.34l14.59-7.48l-5.53-10.77
					l-14.59,7.48L512.42,962.34z"/>
				<polygon class="st3" points="497.75,914.94 489.21,912.27 489.98,909.81 495.07,911.41 494.62,896.16 497.19,896.08 				"/>
				<polygon class="st3" points="508.69,936.27 500.16,933.6 500.92,931.14 506.02,932.74 505.57,917.49 508.14,917.41 				"/>
				<polygon class="st3" points="519.34,957.02 510.8,954.35 511.57,951.9 516.66,953.49 516.22,938.24 518.78,938.17 				"/>
			</g>
			<path class="st12" d="M535.12,907.53c0,0,2.35,2.56,8.39,1.64c6.24-0.95,6.82-3.35,6.82-3.35s4.52,3.98,9.47,4.12
				c4.95,0.15,8.67-4.65,8.67-4.65l-4.69-7.18l-19.9,2.69L535.12,907.53z"/>
			<path class="st44" d="M883.7,805.76l6.3,103.99L833.5,974.7c0,0-2.7,3.24,10.26,17.27c12.95,14.03,23.21,6.48,23.21,6.48
				l38.14-74.3l115.14-49.84c0,0-53.16-23.74-82.58-28.61C896.29,838.87,883.7,805.76,883.7,805.76z"/>
			<path class="st12" d="M910.61,907.53c0,0-2.35,2.56-8.39,1.64c-6.24-0.95-6.82-3.35-6.82-3.35s-4.52,3.98-9.47,4.12
				c-4.95,0.15-8.67-4.65-8.67-4.65l4.69-7.18l19.89,2.69L910.61,907.53z"/>
			<g>
				<path class="st45" d="M999.09,821.59c0,0,1.37,2.64,3.35,2.25c1.99-0.39,1.44-4.2,1.44-4.2l-5.39-3.62c0,0-3.12-1.68-3.35,0.72
					C994.92,819.13,999.09,821.59,999.09,821.59z"/>
				<path class="st46" d="M1003.88,819.64l-5.39-3.62c0,0-2.83-4.66,1.63-9.25c4.46-4.58,12.53-5.37,12.53-5.37s3.36,1.22,1.27,7.4
					C1011.83,814.99,1003.88,819.64,1003.88,819.64z"/>
				<path class="st45" d="M997.12,818.07c0,0-4.02-1.88-2.34-5.92s8.33-7.68,8.33-7.68l-1.93,7.54L997.12,818.07z"/>
				<path class="st45" d="M983.04,826.26c1.98,0.56,9.36-4.69,11.82-6.33c2.46-1.64,3.35-6.74,3.35-6.74l-2.4,3.56
					c0,0-2.1,0.83-4.2,2.69C989.51,821.3,983.04,826.26,983.04,826.26z"/>
			</g>
			<g>
				<path class="st45" d="M942.28,789.39c0,0,2.97,0.03,3.56-1.91c0.59-1.94-3.04-3.24-3.04-3.24l-5.72,3.06c0,0-2.94,1.97-0.93,3.3
					C938.16,791.93,942.28,789.39,942.28,789.39z"/>
				<path class="st46" d="M942.8,784.24l-5.72,3.06c0,0-5.45,0.32-7.41-5.76c-1.96-6.09,1.12-13.58,1.12-13.58s2.65-2.39,7.13,2.34
					C942.41,775.04,942.8,784.24,942.8,784.24z"/>
				<path class="st45" d="M938.25,789.48c0,0-3.54,2.67-6.32-0.7c-2.78-3.38-2.89-10.96-2.89-10.96l5.76,5.23L938.25,789.48z"/>
				<path class="st45" d="M938.9,805.76c1.42-1.49,0.24-10.47-0.06-13.41c-0.3-2.94-4.39-6.11-4.39-6.11l2.03,3.78
					c0,0-0.25,2.24,0.4,4.97C937.54,797.72,938.9,805.76,938.9,805.76z"/>
			</g>
			<path class="st40" d="M893.41,807.64c-7.54-2.88-14.97-3.77-17.17,4.96c-2.2,8.73,12.39,6.07,12.39,6.07s-8.92-2.39-13.78,2.59
				c-4.87,4.98-5.48,9.06-5.48,9.06s4.26-1.48,7.29-1c3.04,0.48,5.92-1.5,5.92-1.5s-9.26-2.32-7.54,3.46
				c1.72,5.78,13.3,1.97,13.3,1.97s-9.7,0.99-5.15,4.16c4.55,3.17,31.03,0.1,31.03,0.1l3.11-11.88
				C917.33,825.62,900.94,810.52,893.41,807.64z"/>
			<path class="st40" d="M992.1,879.11c5.32,6.07,11.47,10.33,17.5,3.64c6.03-6.69-8.12-11.15-8.12-11.15s6.77,6.28,13.4,4.15
				c6.63-2.13,9.08-5.45,9.08-5.45s-4.46-0.68-6.92-2.52c-2.46-1.84-5.93-1.44-5.93-1.44s7.1,6.38,8.28,0.47
				c1.18-5.91-10.84-7.95-10.84-7.95s9.04,3.66,6.5-1.27c-2.54-4.93-27.39-14.59-27.39-14.59l-8.3,9.05
				C979.35,852.04,986.79,873.04,992.1,879.11z"/>
			<g>
				<path class="st47" d="M887.33,806.98c-3.32-9.73,4.77-24.97,17.44-29.29c12.67-4.32,26.08,2.04,29.24,15.97
					c2.28,10.03-0.08,25.44-12.75,29.76C908.59,827.74,890.65,816.71,887.33,806.98z"/>
				<path class="st48" d="M921.06,807.35c0,0,0.08,2.9-9.92,3.48c-10,0.58-12.54-4.88-12.54-4.88l9.84,1.38c0,0-3.49-2.86,2.02-3.63
					c5.52-0.77,4.06,3.77,4.06,3.77L921.06,807.35z"/>
				<path class="st46" d="M926.37,805.16c0,0,2.7-6.41-8.88-8.27c-11.58-1.86-19.15,3.95-19.15,3.95s9.59-8.77,20.75-7.07
					C931.29,795.62,926.37,805.16,926.37,805.16z"/>
				<path class="st46" d="M922.2,790.26c0,0-3.55-7.75-16.99-2.49c-12.38,4.84-14.14,17.89-14.14,17.89s1.55-17.47,13.64-21.68
					C920.55,778.48,922.2,790.26,922.2,790.26z"/>
				<path class="st46" d="M903.11,814.81c0,0,2.18,2.95,12.23,1.59c8.01-1.09,9.36-6.84,9.36-6.84s-2.72,8.91-9.46,9.49
					C908.5,819.62,903.11,814.81,903.11,814.81z"/>
			</g>
			<g>
				<path class="st47" d="M937.69,808.37c0.81-10.94,15.11-22.52,29.35-21.46c14.24,1.06,24.74,12.9,22.03,27.89
					c-1.96,10.79-10.7,24.93-24.94,23.88C949.88,837.61,936.88,819.3,937.69,808.37z"/>
				<path class="st48" d="M970.64,822.82c0,0-1.13,2.88-11.19-0.72c-10.06-3.6-10.27-10.03-10.27-10.03l9.08,5.46
					c0,0-2.23-4.27,3.5-2.72c5.74,1.54,2.42,5.39,2.42,5.39L970.64,822.82z"/>
				<path class="st46" d="M976.77,822.88c0,0,5.33-5.17-5.26-11.83c-10.58-6.66-20.45-4.12-20.45-4.12s13.08-4.6,23.31,1.73
					C985.58,815.58,976.77,822.88,976.77,822.88z"/>
				<path class="st46" d="M978.9,806.52c0,0-0.24-9.09-15.63-9.54c-14.17-0.42-21.35,11.65-21.35,11.65s8.82-16.5,22.44-15.57
					C982.19,794.27,978.9,806.52,978.9,806.52z"/>
				<path class="st46" d="M949.9,822.64c0,0,0.9,3.81,11.34,6.67c8.31,2.28,12.04-2.81,12.04-2.81s-6.39,7.61-13.25,5.36
					C953.18,829.62,949.9,822.64,949.9,822.64z"/>
			</g>
			<g>
				<path class="st47" d="M984.02,827.32c5.06-7.06,19.5-8.99,28.69-2.4c9.19,6.59,11.41,18.92,3.39,27.94
					c-5.77,6.49-17.52,12.44-26.71,5.85C980.2,852.12,978.96,834.38,984.02,827.32z"/>
				<path class="st48" d="M1000.33,850.68c0,0-1.95,1.48-7.27-5.1c-5.31-6.58-2.81-11.02-2.81-11.02l3.89,7.44
					c0,0,0.25-3.8,3.49-0.39c3.24,3.41-0.59,4.64-0.59,4.64L1000.33,850.68z"/>
				<path class="st46" d="M1004.45,853.25c0,0,5.73-1.3,1.32-10.16c-4.41-8.87-12.12-11.22-12.12-11.22s10.73,2.29,15.05,10.78
					C1013.41,851.95,1004.45,853.25,1004.45,853.25z"/>
				<path class="st46" d="M1012.63,843.07c0,0,3.58-6.24-6.63-12.9c-9.41-6.13-19.24-0.93-19.24-0.93s12.77-7.51,21.59-1.27
					C1019.92,836.14,1012.63,843.07,1012.63,843.07z"/>
				<path class="st46" d="M986.39,842c0,0-0.96,2.95,4.92,9.18c4.68,4.97,9.3,3.07,9.3,3.07s-7.46,2.51-11.17-1.84
					C985.73,848.07,986.39,842,986.39,842z"/>
			</g>
			<g>
				<path class="st47" d="M979.61,845.69c5.57,6.67,3.82,21.13-4.86,28.38c-8.68,7.25-21.18,6.3-27.89-3.72
					c-4.83-7.21-7.65-20.08,1.03-27.32C956.56,835.77,974.04,839.02,979.61,845.69z"/>
				<path class="st48" d="M952.91,855.62c0,0-0.94-2.26,6.76-5.75c7.71-3.49,11.37,0.04,11.37,0.04l-8.17,1.9
					c0,0,3.62,1.19-0.49,3.48c-4.11,2.28-4.35-1.74-4.35-1.74L952.91,855.62z"/>
				<path class="st46" d="M949.39,858.97c0,0-0.18,5.87,9.51,3.83c9.69-2.04,13.9-8.92,13.9-8.92s-4.9,9.82-14.21,11.86
					C948.4,867.97,949.39,858.97,949.39,858.97z"/>
				<path class="st46" d="M957.19,869.44c0,0,5.15,5.03,14.15-3.19c8.29-7.57,5.72-18.39,5.72-18.39s4.07,14.24-4.18,21.22
					C962.07,878.23,957.19,869.44,957.19,869.44z"/>
				<path class="st46" d="M964.8,844.3c0,0-2.61-1.67-10.12,2.46c-5.98,3.29-5.3,8.23-5.3,8.23s-0.56-7.85,4.58-10.35
					C959.09,842.14,964.8,844.3,964.8,844.3z"/>
			</g>
			<g>
				<path class="st47" d="M946.37,853.28c-3.4,7.99-17.07,13.02-27.48,8.6c-10.4-4.43-15.26-15.98-9.39-26.53
					c4.22-7.59,14.39-15.96,24.79-11.53C944.7,828.25,949.77,845.29,946.37,853.28z"/>
				<path class="st48" d="M925.37,834.04c0,0,1.58-1.87,8.2,3.4c6.62,5.27,5.14,10.14,5.14,10.14l-5.41-6.41
					c0,0,0.59,3.77-3.32,1.15c-3.91-2.62-0.43-4.66-0.43-4.66L925.37,834.04z"/>
				<path class="st46" d="M920.79,832.43c0,0-5.31,2.51,0.92,10.21c6.23,7.69,14.27,8.31,14.27,8.31s-10.97,0.11-17.03-7.25
					C912.32,835.65,920.79,832.43,920.79,832.43z"/>
				<path class="st46" d="M915.02,844.14c0,0-2.14,6.87,9.29,11.14c10.52,3.93,18.98-3.29,18.98-3.29s-10.82,10.11-20.8,5.95
					C909.42,852.49,915.02,844.14,915.02,844.14z"/>
				<path class="st46" d="M940.86,839.46c0,0,0.3-3.08-6.8-7.89c-5.65-3.83-9.74-0.97-9.74-0.97s6.73-4.07,11.3-0.64
					C940.18,833.4,940.86,839.46,940.86,839.46z"/>
			</g>
		</g>
	</g>
</g>
</svg>
